<svg width="22" height="22" viewBox="0 0 22 22" fill="none" xmlns="http://www.w3.org/2000/svg">
<path d="M11.0014 0.439453C5.18167 0.439453 0.441406 5.17972 0.441406 10.9995C0.441406 16.8192 5.18167 21.5595 11.0014 21.5595C16.8211 21.5595 21.5614 16.8192 21.5614 10.9995C21.5614 5.17972 16.8211 0.439453 11.0014 0.439453ZM11.0014 19.6821C6.21421 19.6821 2.31874 15.7866 2.31874 10.9995C2.31874 6.2123 6.21425 2.31679 11.0014 2.31679C15.7886 2.31679 19.6841 6.2123 19.6841 10.9995C19.6841 15.7866 15.7886 19.6821 11.0014 19.6821Z" fill="white"/>
<path d="M12.1787 5.32177C12.1787 5.96983 11.6534 6.4951 11.0054 6.4951C10.3573 6.4951 9.83203 5.96983 9.83203 5.32177C9.83203 4.67371 10.3573 4.14844 11.0054 4.14844C11.6534 4.14844 12.1787 4.67371 12.1787 5.32177Z" fill="#86E2FF"/>
<path d="M11.005 8.25391C10.4887 8.25391 10.0664 8.67622 10.0664 9.19249V16.9365C10.0664 17.4528 10.4887 17.8751 11.005 17.8751C11.5213 17.8751 11.9436 17.4528 11.9436 16.9365V9.19249C11.9436 8.6528 11.5213 8.25391 11.005 8.25391Z" fill="white"/>
</svg>
