<svg width="32" height="31" viewBox="0 0 32 31" fill="none" xmlns="http://www.w3.org/2000/svg">
<path fill-rule="evenodd" clip-rule="evenodd" d="M26.6676 12.4975C26.885 12.4975 27.097 12.4806 27.3064 12.456L29.0127 14.0038L29.6522 11.5541C30.5331 10.8997 31.089 9.96351 31.089 8.91989C31.089 6.9435 29.109 5.3418 26.6676 5.3418C24.2251 5.3418 22.2461 6.94375 22.2461 8.91989C22.2463 10.8955 24.2254 12.4975 26.6676 12.4975L26.6676 12.4975Z" fill="white"/>
<path fill-rule="evenodd" clip-rule="evenodd" d="M7.60373 14.366L8.30493 11.6805C9.27508 11.5668 10.1794 11.2942 10.9852 10.9022C11.0996 11.7723 11.2324 12.6692 11.3331 13.2976C11.6982 15.5601 13.2673 17.8427 15.95 17.8427C18.2447 17.8427 19.969 16.1519 20.5628 13.3198C20.798 12.2003 21.0678 9.97456 21.143 8.80633C21.2257 7.50511 20.7616 6.24583 19.837 5.261C18.8356 4.194 17.4189 3.58219 15.9505 3.58219C15.3124 3.58219 14.6864 3.70412 14.0979 3.92243C13.1025 1.63834 10.4203 0 7.25932 0C3.24942 0 0 2.6299 0 5.87445C0 8.18098 1.64747 10.1718 4.03908 11.1325L7.60373 14.366ZM19.1318 5.92234C19.8718 6.71052 20.2434 7.71318 20.1781 8.74427C20.1063 9.85655 19.84 12.057 19.6164 13.1211C19.3797 14.2498 18.5489 16.8751 15.9506 16.8751C13.8368 16.8751 12.5884 15.0006 12.2884 13.1435C12.099 11.959 11.792 9.81029 11.7233 8.74427C11.6573 7.71342 12.0286 6.71175 12.7679 5.92333C13.5877 5.0496 14.7475 4.54839 15.9501 4.54839C17.1528 4.54887 18.3123 5.04959 19.1318 5.92234H19.1318ZM9.32912 5.18309C9.7108 5.18284 10.0199 5.49272 10.0199 5.87392C10.0199 6.25561 9.71079 6.56475 9.32912 6.56475C8.94767 6.56475 8.63828 6.25559 8.63828 5.87392C8.63828 5.49271 8.94768 5.18309 9.32912 5.18309ZM7.08649 5.18309C7.46817 5.18284 7.77732 5.49272 7.77732 5.87392C7.77732 6.25561 7.46816 6.56475 7.08649 6.56475C6.70504 6.56475 6.39565 6.25559 6.39565 5.87392C6.39565 5.49271 6.70505 5.18309 7.08649 5.18309ZM4.84386 5.18309C5.22554 5.18284 5.53469 5.49272 5.53469 5.87392C5.53469 6.25561 5.22553 6.56475 4.84386 6.56475C4.46241 6.56475 4.15302 6.25559 4.15302 5.87392C4.15302 5.49271 4.46242 5.18309 4.84386 5.18309Z" fill="white"/>
<path fill-rule="evenodd" clip-rule="evenodd" d="M29.6536 23.5063C29.4674 22.9885 29.1955 22.5143 28.845 22.1063L29.4632 21.0374C28.7703 20.3338 27.8905 19.8198 26.9056 19.5613L26.2897 20.6294C26.0278 20.5808 25.7599 20.5511 25.4835 20.5516C25.2076 20.5523 24.9377 20.5803 24.6748 20.628L24.0606 19.5586C23.95 19.5875 23.8413 19.621 23.7331 19.6566C22.7474 19.1911 21.6522 18.9258 20.5018 18.9258H11.3956C7.78084 18.9258 4.66429 21.4767 3.9845 24.999L3.3334 28.7203C3.30882 28.8607 3.34762 29.0053 3.43943 29.1147C3.53123 29.2241 3.66666 29.287 3.80979 29.287H21.9038C22.5228 29.8015 23.2539 30.1851 24.0551 30.3961L24.6701 29.328C24.9347 29.3781 25.2038 29.4046 25.4797 29.4051C25.7551 29.4065 26.0231 29.3778 26.287 29.3277L26.9043 30.3985C27.886 30.1395 28.7653 29.6267 29.4595 28.9239L28.8422 27.854C29.1928 27.4453 29.4667 26.9742 29.6525 26.4573L30.8834 26.4575C31.0157 25.9874 31.0872 25.4937 31.0889 24.9814C31.0872 24.4698 31.0154 23.9746 30.886 23.5038L29.6536 23.5063ZM17.7943 19.8938L16.6723 21.9143H15.2261L14.1044 19.8938H17.7943ZM4.38479 28.3209L4.93516 25.1748C5.52576 22.1149 8.24287 19.8936 11.395 19.8936H12.9979L14.4309 22.4751L13.2135 28.3204L4.38491 28.3207L4.38479 28.3209ZM14.2017 28.3209L15.3344 22.8816H16.5636L17.6971 28.3209H14.2017ZM22.1198 22.1034C21.767 22.5124 21.4942 22.9846 21.3142 23.5015L20.0768 23.5025C19.9491 23.9736 19.8723 24.4673 19.8739 24.9772C19.8708 25.4878 19.9479 25.9817 20.0771 26.4526L21.3101 26.4552C21.4932 26.9709 21.7682 27.4432 22.1171 27.8519L21.8465 28.3206H18.6853L17.4672 22.4752L18.9007 19.8933H20.5011C21.2071 19.8933 21.8888 20.0097 22.531 20.2177C22.1565 20.4492 21.8098 20.7206 21.5011 21.0321L22.1198 22.1034ZM26.1046 26.609C25.203 26.9548 24.1957 26.5047 23.8507 25.6029C23.509 24.7037 23.955 23.6964 24.8574 23.3506C25.7545 23.0058 26.7656 23.4571 27.1087 24.3552C27.4521 25.2533 27.0027 26.2629 26.1046 26.6089V26.609Z" fill="white"/>
</svg>
