<svg width="15" height="15" viewBox="0 0 15 15" fill="none" xmlns="http://www.w3.org/2000/svg">
<path d="M7.45 0C6.93576 0 6.51871 0.417027 6.51871 0.931291V6.51871H0.931292C0.417044 6.51871 0 6.93552 0 7.45C0 7.96425 0.417027 8.38129 0.931292 8.38129H6.51871V13.9687C6.51871 14.483 6.93574 14.9 7.45 14.9C7.96427 14.9 8.3813 14.483 8.3813 13.9687V8.38129H13.9687C14.483 8.38129 14.9 7.96426 14.9 7.45C14.9 6.93574 14.483 6.51871 13.9687 6.51871H8.3813V0.931291C8.3813 0.417044 7.96448 0 7.45 0Z" fill="white"/>
</svg>
