<svg width="20" height="20" viewBox="0 0 20 20" fill="none" xmlns="http://www.w3.org/2000/svg">
<path d="M17.5 4.99967H14.8583L13.3333 3.33301H8.33333V4.99967H12.6L14.125 6.66634H17.5V16.6663H4.16667V9.16634H2.5V16.6663C2.5 17.583 3.25 18.333 4.16667 18.333H17.5C18.4167 18.333 19.1667 17.583 19.1667 16.6663V6.66634C19.1667 5.74968 18.4167 4.99967 17.5 4.99967ZM6.66667 11.6663C6.66667 13.9663 8.53333 15.833 10.8333 15.833C13.1333 15.833 15 13.9663 15 11.6663C15 9.36634 13.1333 7.49968 10.8333 7.49968C8.53333 7.49968 6.66667 9.36634 6.66667 11.6663ZM10.8333 9.16634C12.2083 9.16634 13.3333 10.2913 13.3333 11.6663C13.3333 13.0413 12.2083 14.1663 10.8333 14.1663C9.45833 14.1663 8.33333 13.0413 8.33333 11.6663C8.33333 10.2913 9.45833 9.16634 10.8333 9.16634ZM4.16667 4.99967H6.66667V3.33301H4.16667V0.833008H2.5V3.33301H0V4.99967H2.5V7.49968H4.16667V4.99967Z" fill="white"/>
</svg>
