<svg width="14" height="9" viewBox="0 0 14 9" fill="none" xmlns="http://www.w3.org/2000/svg">
<path d="M6.85611 0.0674227C6.68061 0.162101 6.5712 0.342135 6.5712 0.537947V3.58703H0.550721C0.246723 3.58703 0 3.82803 0 4.12498C0 4.42193 0.246723 4.66293 0.550721 4.66293H6.5712V7.71201C6.5712 7.90854 6.68061 8.08858 6.85611 8.18254C7.0316 8.27794 7.24602 8.27148 7.41564 8.16748L13.243 4.58044C13.4031 4.48146 13.5 4.31003 13.5 4.12498C13.5 3.93993 13.4031 3.7685 13.243 3.66952L7.41564 0.0824853C7.32605 0.0279733 7.22399 0 7.12192 0C7.03087 0 6.93908 0.0229524 6.85611 0.0674227Z" fill="white"/>
</svg>
