<svg width="42" height="42" viewBox="0 0 42 42" fill="none" xmlns="http://www.w3.org/2000/svg">
<path d="M20.825 0C9.34233 0 0 9.34233 0 20.825C0 32.3077 9.34233 41.65 20.825 41.65C32.3077 41.65 41.65 32.3077 41.65 20.825C41.65 9.34233 32.3077 0 20.825 0ZM20.825 39.3361C10.6183 39.3361 2.31389 31.0317 2.31389 20.825C2.31389 10.6183 10.6183 2.31389 20.825 2.31389C31.0317 2.31389 39.3361 10.6183 39.3361 20.825C39.3361 31.0317 31.0317 39.3361 20.825 39.3361Z" fill="#FEDE48"/>
<path d="M31.6739 16.9365C31.6739 18.3892 30.4966 19.5664 29.044 19.5664C27.5917 19.5664 26.4141 18.3892 26.4141 16.9365C26.4141 15.4842 27.5917 14.3066 29.044 14.3066C30.4966 14.3066 31.6739 15.4842 31.6739 16.9365Z" fill="#FEDE48"/>
<path d="M15.2364 16.9365C15.2364 18.3892 14.0588 19.5664 12.6065 19.5664C11.1538 19.5664 9.97656 18.3892 9.97656 16.9365C9.97656 15.4842 11.1538 14.3066 12.6065 14.3066C14.0588 14.3066 15.2364 15.4842 15.2364 16.9365Z" fill="#FEDE48"/>
<path d="M27.824 24.2945L13.4036 26.9635C12.7757 27.0797 12.3606 27.6831 12.4764 28.3115C12.5797 28.8687 13.0655 29.258 13.6124 29.258C13.6821 29.258 13.7531 29.2515 13.8245 29.2386L28.245 26.5696C28.8728 26.4534 29.2879 25.8501 29.1721 25.2216C29.0559 24.5931 28.4516 24.1761 27.8241 24.2945L27.824 24.2945Z" fill="#FEDE48"/>
</svg>
