<svg width="21" height="21" viewBox="0 0 21 21" fill="none" xmlns="http://www.w3.org/2000/svg">
<path d="M10.3496 0.349609C4.83572 0.349609 0.349609 4.83572 0.349609 10.3496C0.349609 15.8635 4.83572 20.3496 10.3496 20.3496C15.8635 20.3496 20.3496 15.8635 20.3496 10.3496C20.3496 4.83572 15.8635 0.349609 10.3496 0.349609ZM10.3496 19.2385C5.44842 19.2385 1.46072 15.2508 1.46072 10.3496C1.46072 5.44842 5.44842 1.46072 10.3496 1.46072C15.2508 1.46072 19.2385 5.44842 19.2385 10.3496C19.2385 15.2508 15.2508 19.2385 10.3496 19.2385Z" fill="#FEDE48"/>
<path d="M15.5589 8.48258C15.5589 9.18013 14.9936 9.74544 14.2961 9.74544C13.5987 9.74544 13.0332 9.18013 13.0332 8.48258C13.0332 7.7852 13.5987 7.21973 14.2961 7.21973C14.9936 7.21973 15.5589 7.7852 15.5589 8.48258Z" fill="#FEDE48"/>
<path d="M7.66634 8.48258C7.66634 9.18013 7.10086 9.74544 6.40348 9.74544C5.70594 9.74544 5.14062 9.18013 5.14062 8.48258C5.14062 7.7852 5.70594 7.21973 6.40348 7.21973C7.10086 7.21973 7.66634 7.7852 7.66634 8.48258Z" fill="#FEDE48"/>
<path d="M13.7111 12.0155L6.78654 13.2972C6.48505 13.353 6.28571 13.6427 6.34134 13.9445C6.39095 14.212 6.62424 14.3989 6.88682 14.3989C6.9203 14.3989 6.9544 14.3958 6.98866 14.3896L13.9133 13.108C14.2148 13.0522 14.4141 12.7625 14.3585 12.4607C14.3027 12.1589 14.0125 11.9586 13.7112 12.0155L13.7111 12.0155Z" fill="#FEDE48"/>
</svg>
