<svg width="33" height="32" viewBox="0 0 33 32" fill="none" xmlns="http://www.w3.org/2000/svg">
<g filter="url(#filter0_d_648_2501)">
<path d="M27.0402 11.9378H26.7983C26.7162 10.4541 25.5127 9.26451 24.0231 9.20488C23.4811 8.22821 22.4381 7.60698 21.3133 7.60698C19.8694 7.60698 18.62 8.61792 18.2981 10.0005C17.257 10.0131 16.4067 10.8661 16.3412 11.9377H11.8763C11.5028 10.965 10.5569 10.3422 9.4387 10.3422C8.96765 10.3422 8.51119 10.4689 8.11245 10.7046L8.11263 2.27011C8.11263 1.35372 8.85796 0.608392 9.77434 0.608392C10.6514 0.608392 11.3717 1.29165 11.4315 2.15397C11.2768 2.20246 11.1353 2.29059 11.0237 2.41157L10.0325 3.48578C9.77713 3.76268 9.71229 4.14888 9.86334 4.49374C10.0144 4.83877 10.3422 5.05289 10.7189 5.05289H12.7015C13.0781 5.05289 13.406 4.83858 13.557 4.49374C13.7081 4.14871 13.6432 3.76247 13.3879 3.48578L12.3966 2.41157C12.2981 2.30467 12.1759 2.22454 12.0422 2.17344C11.9913 0.966441 10.9939 0 9.77459 0C8.52274 0 7.5045 1.01841 7.5045 2.27008V10.596C7.30496 10.5119 7.08908 10.4658 6.86694 10.4658C6.01904 10.4658 5.3191 11.1121 5.23393 11.9379H4.98798C4.44324 11.9379 4 12.3811 4 12.9259V12.9829C4 13.5278 4.44323 13.971 4.98798 13.971H5.43261L5.93667 18.2466C5.94641 19.8794 7.23876 21.2631 9.01185 21.7263L8.76259 23.1594C8.75964 23.1766 8.75807 23.194 8.75807 23.2115C8.75807 23.6464 9.11179 24 9.5467 24C9.97169 24 10.3191 23.6621 10.3346 23.2408L10.5693 21.8916H21.464L21.6938 23.2123C21.7093 23.6335 22.0569 23.9715 22.4817 23.9715C22.9166 23.9715 23.2702 23.6178 23.2702 23.1831C23.2702 23.1655 23.2688 23.1481 23.2657 23.1309L23.0234 21.7379C24.8219 21.2872 26.1382 19.893 26.1469 18.2445L26.5948 13.971H27.0403C27.585 13.971 28.0284 13.5278 28.0284 12.9829V12.9259C28.0283 12.3809 27.5852 11.9377 27.0403 11.9377L27.0402 11.9378ZM11.71 2.71929C11.8019 2.71929 11.8869 2.75648 11.9493 2.8241L12.9406 3.89831C13.0746 4.04345 13.0197 4.20406 12.9995 4.24977C12.9795 4.29548 12.8987 4.44462 12.7012 4.44462H10.7186C10.5212 4.44462 10.4405 4.29548 10.4204 4.24977C10.4004 4.20406 10.3455 4.04345 10.4793 3.89831L11.4706 2.8241C11.533 2.75649 11.618 2.71929 11.7099 2.71929H11.71ZM18.3218 10.6087C18.3809 10.6087 18.4426 10.6132 18.5054 10.6221C18.5855 10.6335 18.6667 10.6123 18.7314 10.5635C18.7958 10.5147 18.8383 10.4423 18.8494 10.3622C19.0171 9.13836 20.0765 8.21539 21.3134 8.21539C22.2696 8.21539 23.1524 8.77406 23.5625 9.63878C23.6129 9.74515 23.7199 9.81259 23.8373 9.81259C23.8401 9.81259 23.8428 9.81259 23.8456 9.81242L23.8689 9.81172C23.8812 9.8112 23.8936 9.81086 23.9061 9.81086C25.1136 9.81086 26.1051 10.751 26.1883 11.9377H23.2536V11.9998H23.2317V14.0652C23.2317 14.271 23.0902 14.4449 22.9228 14.4449H22.6673C22.4999 14.4449 22.3584 14.271 22.3584 14.0652V11.9389H22.341V11.9379H16.9511C17.0147 11.1938 17.605 10.6087 18.3218 10.6087L18.3218 10.6087ZM8.11279 11.454C8.47885 11.1294 8.94867 10.9507 9.43903 10.9507C10.2116 10.9507 10.8746 11.3297 11.2073 11.9379H8.11296L8.11279 11.454ZM6.86686 11.074C7.10064 11.074 7.32385 11.1533 7.50442 11.2953V11.9377H5.84862C5.92997 11.4486 6.35496 11.074 6.86686 11.074V11.074ZM4.98804 13.3623C4.77876 13.3623 4.60842 13.192 4.60842 12.9825V12.9255C4.60842 12.7162 4.77876 12.5459 4.98804 12.5459H21.7502V13.3622L4.98804 13.3623ZM9.73103 23.1589C9.72807 23.1761 9.72651 23.1935 9.72651 23.211C9.72651 23.3087 9.64394 23.3911 9.54626 23.3911C9.45517 23.3911 9.3773 23.3195 9.36723 23.2307L9.60849 21.8429C9.72216 21.8584 9.8374 21.8697 9.95369 21.8777L9.73103 23.1589ZM22.4818 23.3628C22.3841 23.3628 22.3017 23.2802 22.3017 23.1827C22.3017 23.1651 22.3001 23.1478 22.297 23.1306L22.0797 21.8812C22.1964 21.8742 22.3118 21.8646 22.4256 21.8502L22.6608 23.2024C22.6506 23.291 22.5727 23.3628 22.4818 23.3628L22.4818 23.3628ZM25.5404 18.1962C25.5394 18.2068 25.5389 18.2174 25.5389 18.228C25.5389 19.9124 23.8487 21.283 21.7712 21.283L10.3126 21.2828C8.23515 21.2828 6.54478 19.9123 6.54478 18.2278C6.54478 18.2158 6.54408 18.204 6.54269 18.1922L6.04503 13.9707H21.75V14.0652C21.75 14.61 22.1614 15.0532 22.6672 15.0532H22.9227C23.4285 15.0532 23.8399 14.6101 23.8399 14.0652V13.9707H25.9829L25.5404 18.1962ZM27.4199 12.9828C27.4199 13.1923 27.2496 13.3626 27.0401 13.3626L23.8401 13.3625V12.5462H27.0403C27.2498 12.5462 27.4201 12.7164 27.4201 12.9258L27.4199 12.9828Z" fill="white"/>
<path d="M16.9831 8.1579C17.6222 8.1579 18.1421 7.63799 18.1421 6.99887C18.1421 6.35993 17.6222 5.83984 16.9831 5.83984C16.3441 5.83984 15.8242 6.35975 15.8242 6.99887C15.824 7.63799 16.3439 8.1579 16.9831 8.1579ZM16.9831 6.44839C17.2867 6.44839 17.5337 6.69539 17.5337 6.99905C17.5337 7.30253 17.2867 7.5497 16.9831 7.5497C16.6796 7.5497 16.4324 7.30271 16.4324 6.99905C16.4324 6.69539 16.6794 6.44839 16.9831 6.44839Z" fill="white"/>
<path d="M19.9174 6.04959C20.6978 6.04959 21.3328 5.41461 21.3328 4.63417C21.3328 3.85373 20.6978 3.21875 19.9174 3.21875C19.1369 3.21875 18.502 3.85373 18.502 4.63417C18.5021 5.41461 19.1369 6.04959 19.9174 6.04959ZM19.9174 3.82716C20.3623 3.82716 20.7244 4.18923 20.7244 4.63422C20.7244 5.0792 20.3624 5.44127 19.9174 5.44127C19.4724 5.44127 19.1103 5.0792 19.1103 4.63422C19.1105 4.18924 19.4726 3.82716 19.9174 3.82716Z" fill="white"/>
<path d="M10.6953 6.09668H11.3037V7.38884H10.6953V6.09668Z" fill="white"/>
<path d="M12.4053 8.20508H13.0136V9.49724H12.4053V8.20508Z" fill="white"/>
<path d="M14.6602 19.9443H15.8701V20.5527H14.6602V19.9443Z" fill="white"/>
<path d="M7.88299 18.2282C7.88299 18.2223 7.88281 18.2164 7.88246 18.2103L7.85535 17.75L7.24805 17.7856L7.27464 18.2375C7.28159 19.4937 8.66986 20.5532 10.3123 20.5532H13.9223V19.9448H10.3123C9.01823 19.9448 7.88301 19.1426 7.88301 18.2282L7.88299 18.2282Z" fill="white"/>
</g>
<defs>
<filter id="filter0_d_648_2501" x="0" y="0" width="32.0283" height="32" filterUnits="userSpaceOnUse" color-interpolation-filters="sRGB">
<feFlood flood-opacity="0" result="BackgroundImageFix"/>
<feColorMatrix in="SourceAlpha" type="matrix" values="0 0 0 0 0 0 0 0 0 0 0 0 0 0 0 0 0 0 127 0" result="hardAlpha"/>
<feOffset dy="4"/>
<feGaussianBlur stdDeviation="2"/>
<feComposite in2="hardAlpha" operator="out"/>
<feColorMatrix type="matrix" values="0 0 0 0 0 0 0 0 0 0 0 0 0 0 0 0 0 0 0.25 0"/>
<feBlend mode="normal" in2="BackgroundImageFix" result="effect1_dropShadow_648_2501"/>
<feBlend mode="normal" in="SourceGraphic" in2="effect1_dropShadow_648_2501" result="shape"/>
</filter>
</defs>
</svg>
