<svg width="33" height="33" viewBox="0 0 33 33" fill="none" xmlns="http://www.w3.org/2000/svg">
<path d="M11.3564 7.52951H11.6475V14.5661C11.6475 14.8573 11.8417 15.0514 12.1328 15.0514H20.9167C21.2078 15.0514 21.402 14.8573 21.402 14.5661V7.52951H21.6931C21.9842 7.52951 22.1783 7.33536 22.1783 7.04425C22.1783 6.89858 22.0814 6.75314 21.9842 6.65595L16.8887 1.51182C16.6946 1.31767 16.4035 1.31767 16.2093 1.51182L11.0167 6.70445C10.871 6.85012 10.8226 7.04404 10.9197 7.23819C11.0167 7.43233 11.1624 7.52953 11.3565 7.52953L11.3564 7.52951ZM15.5298 14.0806V10.1013H17.5196V14.0806H15.5298ZM20.4799 14.0806H18.5388V9.61585C18.5388 9.32474 18.3446 9.13059 18.0535 9.13059L15.0446 9.13081C14.7535 9.13081 14.5593 9.32496 14.5593 9.61607V14.0808H12.6183L12.618 7.52916H20.4794L20.4799 14.0806ZM16.5489 2.53071L20.5281 6.55869L12.5209 6.55847L16.5489 2.53071Z" fill="white"/>
<path d="M31.5441 5.7826H24.9925C24.7498 5.15169 24.4587 4.52077 24.0219 3.93853C21.2558 -0.186389 15.5777 -1.2541 11.4043 1.60917C9.85131 2.67688 8.7351 4.13265 8.10442 5.7826H5.14415L5.14392 1.80335C5.14392 1.51224 4.94978 1.31809 4.65866 1.31809C2.08668 1.31809 0 3.55022 0 6.26787V27.1839C0 29.9015 2.08668 32.1339 4.65866 32.1339H31.5435C31.8346 32.1339 32.0288 31.9397 32.0288 31.6486V6.26802C32.0288 6.02539 31.8346 5.78276 31.5435 5.78276L31.5441 5.7826ZM11.9384 2.43403C13.2972 1.4635 14.8987 0.978262 16.5486 0.978262C19.2177 0.978262 21.7412 2.28859 23.2455 4.52077C25.7689 8.2574 24.7984 13.3533 21.1103 15.9248C17.3736 18.4968 12.3269 17.5262 9.80292 13.8381C7.27944 10.1015 8.24998 5.00613 11.9381 2.43409L11.9384 2.43403ZM25.1383 18.4971L29.2147 24.5145C29.7972 25.3396 29.5543 26.5043 28.7295 27.0865C27.9044 27.669 26.7397 27.4261 26.206 26.6012L22.0811 20.5838C22.178 20.5353 22.275 20.4381 25.1383 18.4971L25.1383 18.4971ZM22.7603 18.9339L21.353 16.8956C21.8867 16.556 21.5956 16.75 21.9355 16.4589L23.3427 18.4971L22.7603 18.9339ZM0.970894 6.26759C0.970894 4.27785 2.37816 2.57946 4.17378 2.33679V22.2822C2.86346 22.4279 1.74725 23.1557 0.970894 24.1748V6.26759ZM31.0586 31.1626H4.65879C2.62055 31.1626 0.970665 29.367 0.970665 27.1834C0.970665 24.9995 2.62061 23.2041 4.65879 23.2041C4.9499 23.2041 5.14405 23.01 5.14405 22.7189V6.75246H7.76471C7.08529 9.27594 7.42511 12.042 9.02653 14.3713C11.5985 18.108 16.5001 19.3698 20.5278 17.3801L21.9835 19.5152L21.1584 20.0977C20.9158 20.2434 20.8673 20.5345 21.0128 20.7771L25.3803 27.2315C26.2539 28.4933 28.0007 28.833 29.2626 27.9594C30.5245 27.0859 30.8641 25.2903 29.9905 24.0286L25.623 17.6228C25.526 17.5259 25.4289 17.4287 25.3319 17.4287C25.1862 17.3802 25.0893 17.4287 24.9436 17.5257L24.1185 18.0594L22.6627 15.9242C25.1862 13.5949 26.1567 10.0521 25.2832 6.84917L31.0587 6.84961L31.0586 31.1626Z" fill="white"/>
<path d="M7.5712 22.1856H18.9272C19.2183 22.1856 19.4124 21.9914 19.4124 21.7003C19.4124 21.4092 19.2183 21.2151 18.9272 21.2151L7.5712 21.2148C7.28009 21.2148 7.08594 21.409 7.08594 21.7001C7.08594 21.9914 7.28008 22.1856 7.5712 22.1856Z" fill="white"/>
<path d="M21.4002 24.6602H5.09464C4.80353 24.6602 4.60938 24.8543 4.60938 25.1454C4.60938 25.4365 4.80352 25.6307 5.09464 25.6307H21.4488C21.7399 25.6307 21.9341 25.4365 21.9341 25.1454C21.8858 24.8541 21.6917 24.6602 21.4006 24.6602H21.4002Z" fill="white"/>
<path d="M21.4002 28.1064H5.09464C4.80353 28.1064 4.60938 28.3006 4.60938 28.5917C4.60938 28.8828 4.80352 29.077 5.09464 29.077H21.4488C21.7399 29.077 21.9341 28.8828 21.9341 28.5917C21.8858 28.3004 21.6917 28.1064 21.4006 28.1064H21.4002Z" fill="white"/>
</svg>
