<svg width="22" height="22" viewBox="0 0 22 22" fill="none" xmlns="http://www.w3.org/2000/svg">
<g opacity="0.94">
<path d="M18.6614 0.0001619C19.3079 0.000971387 19.9277 0.25807 20.3849 0.71511C20.8421 1.17215 21.0991 1.79189 21.1001 2.43836V16.0245V16.0243C21.0992 16.6708 20.8421 17.2905 20.3849 17.7476C19.9277 18.2047 19.3079 18.4617 18.6614 18.4625H15.2977V18.662V18.6618C15.2969 19.3083 15.0398 19.928 14.5827 20.3851C14.1257 20.8421 13.5059 21.0992 12.8595 21.1H2.4382C1.79172 21.0992 1.17198 20.8421 0.714949 20.3851C0.25792 19.928 0.000828926 19.3083 0 18.6618V5.0757C0.000809488 4.42922 0.257908 3.80948 0.714949 3.35245C1.17199 2.89542 1.79172 2.63833 2.4382 2.6375H5.80248V2.43804V2.4382C5.80345 1.79172 6.06055 1.17198 6.51776 0.714949C6.97497 0.25792 7.5947 0.000828926 8.24118 0L18.6614 0.0001619ZM2.43895 19.5176H12.859C13.0858 19.5173 13.3032 19.427 13.4637 19.2667C13.6241 19.1062 13.7146 18.8888 13.7151 18.662V5.07589C13.7151 4.60428 13.3311 4.22024 12.8594 4.22024H2.43859C1.96697 4.22024 1.58248 4.60426 1.58248 5.07589V18.662C1.58248 19.1339 1.96699 19.5175 2.43859 19.5175L2.43895 19.5176ZM19.5177 16.0245V2.43841C19.5177 1.96679 19.1332 1.58275 18.6616 1.58275H8.24159C7.76998 1.58275 7.38548 1.96677 7.38548 2.43841V2.6377H12.8597C13.5062 2.63851 14.1259 2.89561 14.583 3.35265C15.04 3.80969 15.2971 4.42943 15.2979 5.07591V16.8802H18.6617C19.1333 16.8802 19.5178 16.4967 19.5178 16.0246L19.5177 16.0245ZM10.814 7.38502C11.0967 7.38502 11.358 7.53575 11.4993 7.7807C11.6407 8.02549 11.6407 8.32713 11.4993 8.57191C11.358 8.8167 11.0967 8.96744 10.814 8.96744H4.48391C4.20123 8.96744 3.93993 8.81671 3.79859 8.57191C3.65725 8.32712 3.65725 8.02549 3.79859 7.7807C3.93993 7.53575 4.20124 7.38502 4.48391 7.38502H10.814ZM10.814 11.0775C11.0967 11.0775 11.358 11.2284 11.4993 11.4732C11.6407 11.7179 11.6407 12.0196 11.4993 12.2644C11.358 12.5092 11.0967 12.66 10.814 12.66H4.48391C4.20123 12.66 3.93993 12.5092 3.79859 12.2644C3.65725 12.0196 3.65725 11.7179 3.79859 11.4732C3.93993 11.2284 4.20124 11.0775 4.48391 11.0775H10.814ZM8.70397 14.7699C8.98665 14.7699 9.24795 14.9208 9.38928 15.1656C9.53062 15.4104 9.53062 15.712 9.38928 15.9568C9.24794 16.2016 8.98664 16.3525 8.70397 16.3525H4.48391C4.20123 16.3525 3.93993 16.2016 3.79859 15.9568C3.65725 15.712 3.65725 15.4104 3.79859 15.1656C3.93993 14.9208 4.20124 14.7699 4.48391 14.7699H8.70397Z" fill="white"/>
</g>
</svg>
