<svg width="133" height="85" viewBox="0 0 133 85" fill="none" xmlns="http://www.w3.org/2000/svg">
<path fill-rule="evenodd" clip-rule="evenodd" d="M126.678 81.6795L126.678 81.6795L126.678 81.6795C126.011 82.7065 125.677 83.2199 125.354 83.5334C123.802 85.0383 121.335 85.0383 119.784 83.5334C119.461 83.2199 119.127 82.7065 118.459 81.6795C117.918 80.8474 117.564 80.3036 117.345 79.8952L112.145 79.8952C111.926 80.3036 111.572 80.8474 111.031 81.6795L111.031 81.6795C110.363 82.7065 110.03 83.2199 109.706 83.5334C108.155 85.0383 105.688 85.0383 104.137 83.5334C103.813 83.2199 103.48 82.7065 102.812 81.6795L102.812 81.6795C102.271 80.8474 101.917 80.3036 101.698 79.8952L96.498 79.8952C96.2788 80.3036 95.9252 80.8474 95.3842 81.6795L95.3842 81.6795C94.7165 82.7065 94.3827 83.2199 94.0595 83.5334C92.5078 85.0383 90.0413 85.0383 88.4897 83.5334C88.1665 83.2199 87.8326 82.7065 87.165 81.6795L87.1649 81.6795L87.1649 81.6794C86.6239 80.8474 86.2704 80.3036 86.0511 79.8952L80.8508 79.8952C80.6315 80.3036 80.278 80.8474 79.737 81.6795C79.0693 82.7065 78.7354 83.2199 78.4122 83.5334C76.8606 85.0383 74.3941 85.0383 72.8424 83.5334C72.5192 83.2199 72.1854 82.7065 71.5177 81.6795L71.5177 81.6795L71.5177 81.6795C70.9767 80.8474 70.6231 80.3036 70.4039 79.8952L65.2038 79.8952C64.9846 80.3036 64.631 80.8474 64.09 81.6795C63.4223 82.7065 63.0885 83.2199 62.7653 83.5334C61.2136 85.0383 58.7471 85.0383 57.1955 83.5334C56.8723 83.2199 56.5384 82.7065 55.8707 81.6795L55.8706 81.6793L55.8704 81.679C55.3296 80.8472 54.9761 80.3035 54.7569 79.8952L49.5567 79.8952C49.3375 80.3036 48.9839 80.8474 48.4429 81.6795C47.7752 82.7065 47.4414 83.2199 47.1182 83.5334C45.5666 85.0383 43.1 85.0383 41.5484 83.5334C41.2252 83.2199 40.8913 82.7065 40.2236 81.6795L40.2235 81.6793C39.6826 80.8473 39.3291 80.3036 39.1098 79.8952L33.9098 79.8952C33.6905 80.3036 33.3369 80.8474 32.7959 81.6795C32.1282 82.7065 31.7944 83.2199 31.4712 83.5334C29.9196 85.0383 27.453 85.0383 25.9014 83.5334C25.5782 83.2199 25.2444 82.7065 24.5767 81.6795L24.5766 81.6793C24.0356 80.8473 23.6821 80.3036 23.4629 79.8952L18.2627 79.8952C18.0434 80.3036 17.6898 80.8474 17.1488 81.6795C16.4812 82.7065 16.1473 83.2199 15.8241 83.5334C14.2725 85.0383 11.8059 85.0383 10.2543 83.5334C9.93111 83.2199 9.59727 82.7065 8.92957 81.6795C8.38859 80.8474 8.03502 80.3036 7.81576 79.8952L1.48421e-05 79.8952L1.03053e-05 28.0004C9.15135e-06 14.8011 8.57439e-06 8.20147 4.10052 4.10096C8.20102 0.000461045 14.8007 0.000460468 28 0.000459314L105 0.000452582C118.199 0.000451428 124.799 0.000450851 128.899 4.10095C133 8.20146 133 14.8011 133 28.0005L133 79.8952L127.792 79.8952C127.573 80.3036 127.219 80.8474 126.678 81.6795L126.678 81.6795L126.678 81.6795Z" fill="#DC1734"/>
</svg>
