<svg width="277" height="139" viewBox="0 0 277 139" fill="none" xmlns="http://www.w3.org/2000/svg">
<path fill-rule="evenodd" clip-rule="evenodd" d="M270.5 0H6.5H6V0.0189448C2.64378 0.274257 0 3.07839 0 6.5C0 9.92161 2.64378 12.7257 6 12.9811V18.0189C2.64378 18.2743 0 21.0784 0 24.5C0 27.9216 2.64378 30.7257 6 30.9811V36.0189C2.64378 36.2743 0 39.0784 0 42.5C0 45.9216 2.64378 48.7257 6 48.9811V54.0189C2.64378 54.2743 0 57.0784 0 60.5C0 63.9216 2.64378 66.7257 6 66.9811V72.0189C2.64378 72.2743 0 75.0784 0 78.5C0 81.9216 2.64378 84.7257 6 84.9811V90.0189C2.64378 90.2743 0 93.0784 0 96.5C0 99.9216 2.64378 102.726 6 102.981V108.019C2.64378 108.274 0 111.078 0 114.5C0 117.922 2.64378 120.726 6 120.981V126.019C2.64378 126.274 0 129.078 0 132.5C0 135.922 2.64378 138.726 6 138.981V139H6.5H270.5H271V138.981C274.356 138.726 277 135.922 277 132.5C277 129.078 274.356 126.274 271 126.019V120.981C274.356 120.726 277 117.922 277 114.5C277 111.078 274.356 108.274 271 108.019V102.981C274.356 102.726 277 99.9216 277 96.5C277 93.0784 274.356 90.2743 271 90.0189V84.9811C274.356 84.7257 277 81.9216 277 78.5C277 75.0784 274.356 72.2743 271 72.0189V66.9811C274.356 66.7257 277 63.9216 277 60.5C277 57.0784 274.356 54.2743 271 54.0189V48.9811C274.356 48.7257 277 45.9216 277 42.5C277 39.0784 274.356 36.2743 271 36.0189V30.9811C274.356 30.7257 277 27.9216 277 24.5C277 21.0784 274.356 18.2743 271 18.0189V12.9811C274.356 12.7257 277 9.92161 277 6.5C277 3.07839 274.356 0.274258 271 0.0189449V0H270.5Z" fill="#ED7024"/>
</svg>
