<svg width="21" height="16" viewBox="0 0 21 16" fill="none" xmlns="http://www.w3.org/2000/svg">
<path d="M4.32406 13.4961C3.88368 13.4961 3.54688 13.8329 3.54688 14.2733C3.54688 14.7137 3.88367 15.0505 4.32406 15.0505H15.9032C16.3436 15.0505 16.6804 14.7137 16.6804 14.2733C16.6804 13.8329 16.3436 13.4961 15.9032 13.4961H4.32406Z" fill="white"/>
<path d="M10.7483 1.03724C10.7483 1.39502 10.4583 1.68499 10.1007 1.68499C9.74308 1.68499 9.45312 1.39503 9.45312 1.03724C9.45312 0.679625 9.74308 0.389648 10.1007 0.389648C10.4583 0.389648 10.7483 0.679608 10.7483 1.03724Z" fill="white"/>
<path d="M10.1046 2.09695C9.53476 2.09695 9.06836 1.63071 9.06836 1.06068C9.06836 0.490819 9.5346 0.0244141 10.1046 0.0244141C10.6745 0.0244141 11.1409 0.490653 11.1409 1.06068C11.1409 1.63067 10.6745 2.09695 10.1046 2.09695ZM10.1046 0.775958C9.94915 0.775958 9.84556 0.905409 9.84556 1.03502C9.84556 1.16447 9.97501 1.29409 10.1046 1.29409C10.2341 1.29409 10.3637 1.16464 10.3637 1.03502C10.3637 0.905409 10.2601 0.775958 10.1046 0.775958Z" fill="white"/>
<path d="M12.5901 6.96834L15.2842 4.76637C14.0149 3.39347 12.2792 2.59042 10.4141 2.5127L12.5901 6.96834Z" fill="white"/>
<path d="M1.14184 1.68483C1.45261 1.63295 1.6858 1.37405 1.6858 1.03724C1.6858 0.674583 1.40088 0.389648 1.03821 0.389648C0.675559 0.389648 0.390625 0.67457 0.390625 1.03724C0.390625 1.3999 0.675547 1.68483 1.03821 1.68483C1.06407 1.71068 1.08993 1.68483 1.14181 1.68483H1.14184Z" fill="white"/>
<path d="M1.01041 2.09839C0.440427 2.07253 0 1.60629 0 1.03627C0 0.466405 0.466238 0 1.03627 0C1.60613 0 2.07253 0.466239 2.07253 1.03627C2.07253 1.39892 1.86535 1.73573 1.58044 1.91704L1.6063 1.99477L1.24364 2.04665H1.19177L1.01041 2.09839ZM0.803064 0.932686L1.19158 1.24346C1.24345 1.19158 1.29517 1.11401 1.29517 1.03627C1.29517 0.880803 1.16572 0.77721 1.0361 0.77721C0.932673 0.777373 0.854937 0.854945 0.80306 0.932681L0.803064 0.932686Z" fill="white"/>
<path d="M9.76466 2.5127C7.8995 2.59043 6.16398 3.41932 4.89453 4.76637L7.58859 6.96834L9.76466 2.5127Z" fill="white"/>
<path d="M10.1007 3.62598L7.87283 8.21093L2.45898 3.78126L4.76453 12.7184H15.4374L17.7429 3.78126L12.3286 8.18512L10.1007 3.62598ZM10.1007 11.8895L8.20964 9.99853L10.1007 8.10751L11.9917 9.99853L10.1007 11.8895Z" fill="white"/>
<path d="M10.1099 10.79L9.32227 10.0024L10.1099 9.21484L10.8975 10.0024L10.1099 10.79Z" fill="white"/>
<path d="M19.171 0.389648C18.8084 0.389648 18.5234 0.67457 18.5234 1.03724C18.5234 1.37403 18.7566 1.63308 19.0674 1.68483H19.1451C19.5078 1.68483 19.7927 1.3999 19.7927 1.03724C19.8186 0.700603 19.5337 0.389648 19.171 0.389648H19.171Z" fill="white"/>
<path d="M19.1923 2.09692H19.0369H19.011H18.9851L18.6225 2.01919L18.6483 1.94145C18.3376 1.76012 18.1562 1.42334 18.1562 1.06068C18.1562 0.490819 18.6225 0.0244141 19.1925 0.0244141C19.7624 0.0244141 20.2288 0.490653 20.2288 1.06068C20.2028 1.60481 19.7624 2.07109 19.1924 2.09695L19.1923 2.09692ZM19.1665 0.775933C19.011 0.775933 18.9074 0.905384 18.9074 1.035C18.9074 1.11273 18.9333 1.19047 19.011 1.24218L19.3995 0.905388C19.3478 0.827653 19.2701 0.775937 19.1665 0.775937L19.1665 0.775933Z" fill="white"/>
</svg>
