<svg width="27" height="21" viewBox="0 0 27 21" fill="none" xmlns="http://www.w3.org/2000/svg">
<path d="M5.80889 17.9805C5.22216 17.9805 4.77344 18.4292 4.77344 19.0159C4.77344 19.6027 5.22215 20.0514 5.80889 20.0514H21.2358C21.8226 20.0514 22.2713 19.6027 22.2713 19.0159C22.2713 18.4292 21.8226 17.9805 21.2358 17.9805H5.80889Z" fill="url(#paint0_linear_1602_1692)"/>
<path d="M14.3681 1.38036C14.3681 1.85703 13.9818 2.24337 13.5054 2.24337C13.0289 2.24337 12.6426 1.85705 12.6426 1.38036C12.6426 0.903915 13.0289 0.517578 13.5054 0.517578C13.9818 0.517578 14.3681 0.903892 14.3681 1.38036" fill="url(#paint1_linear_1602_1692)"/>
<path d="M13.5056 2.79542C12.7464 2.79542 12.125 2.17425 12.125 1.4148C12.125 0.655573 12.7462 0.0341797 13.5056 0.0341797C14.2648 0.0341797 14.8862 0.655351 14.8862 1.4148C14.8862 2.17419 14.2648 2.79542 13.5056 2.79542ZM13.5056 1.03546C13.2985 1.03546 13.1605 1.20793 13.1605 1.38062C13.1605 1.55308 13.3329 1.72577 13.5056 1.72577C13.6781 1.72577 13.8508 1.5533 13.8508 1.38062C13.8508 1.20793 13.7128 1.03546 13.5056 1.03546Z" fill="url(#paint2_linear_1602_1692)"/>
<path d="M16.8172 9.28392L20.4065 6.35023C18.7154 4.52111 16.4029 3.45121 13.918 3.34766L16.8172 9.28392Z" fill="url(#paint3_linear_1602_1692)"/>
<path d="M1.56334 2.24315C1.97739 2.17403 2.28807 1.8291 2.28807 1.38036C2.28807 0.897197 1.90846 0.517578 1.42528 0.517578C0.942119 0.517578 0.5625 0.897181 0.5625 1.38036C0.5625 1.86354 0.942102 2.24315 1.42528 2.24315C1.45973 2.2776 1.49419 2.24315 1.5633 2.24315H1.56334Z" fill="url(#paint4_linear_1602_1692)"/>
<path d="M1.3911 2.79569C0.631704 2.76124 0.0449219 2.14007 0.0449219 1.38062C0.0449219 0.621393 0.666093 0 1.42554 0C2.18477 0 2.80616 0.621171 2.80616 1.38062C2.80616 1.86379 2.53013 2.31252 2.15055 2.55407L2.185 2.65764L1.70183 2.72676H1.63272L1.3911 2.79569ZM1.11485 1.24262L1.63246 1.65667C1.70158 1.58755 1.77048 1.4842 1.77048 1.38063C1.77048 1.1735 1.59801 1.03548 1.42533 1.03548C1.28753 1.0357 1.18396 1.13905 1.11484 1.24261L1.11485 1.24262Z" fill="url(#paint5_linear_1602_1692)"/>
<path d="M13.0569 3.34766C10.5719 3.45122 8.25965 4.55555 6.56836 6.35023L10.1577 9.28392L13.0569 3.34766Z" fill="url(#paint6_linear_1602_1692)"/>
<path d="M13.5052 4.83203L10.5371 10.9406L3.32422 5.03892L6.39591 16.946H20.6153L23.687 5.03892L16.4736 10.9062L13.5052 4.83203ZM13.5052 15.8416L10.9858 13.3222L13.5052 10.8028L16.0246 13.3222L13.5052 15.8416Z" fill="url(#paint7_linear_1602_1692)"/>
<path d="M13.5142 14.376L12.4648 13.3267L13.5142 12.2773L14.5635 13.3267L13.5142 14.376Z" fill="url(#paint8_linear_1602_1692)"/>
<path d="M25.5854 0.517578C25.1023 0.517578 24.7227 0.897181 24.7227 1.38036C24.7227 1.82908 25.0334 2.1742 25.4474 2.24315H25.551C26.0341 2.24315 26.4137 1.86354 26.4137 1.38036C26.4482 0.931864 26.0686 0.517578 25.5854 0.517578H25.5854Z" fill="url(#paint9_linear_1602_1692)"/>
<path d="M25.6186 2.79539H25.4115H25.3771H25.3426L24.8594 2.69182L24.8939 2.58825C24.4799 2.34667 24.2383 1.89797 24.2383 1.4148C24.2383 0.655573 24.8595 0.0341797 25.6189 0.0341797C26.3781 0.0341797 26.9995 0.655351 26.9995 1.4148C26.9649 2.13975 26.3781 2.76098 25.6187 2.79542L25.6186 2.79539ZM25.5842 1.03543C25.3771 1.03543 25.239 1.2079 25.239 1.38058C25.239 1.48415 25.2735 1.58772 25.3771 1.65662L25.8947 1.2079C25.8258 1.10434 25.7222 1.03544 25.5842 1.03544L25.5842 1.03543Z" fill="url(#paint10_linear_1602_1692)"/>
<defs>
<linearGradient id="paint0_linear_1602_1692" x1="5.39329" y1="17.9805" x2="6.19457" y2="23.0169" gradientUnits="userSpaceOnUse">
<stop stop-color="#FCB933"/>
<stop offset="1" stop-color="#FEDE48"/>
</linearGradient>
<linearGradient id="paint1_linear_1602_1692" x1="12.7037" y1="0.517578" x2="14.7645" y2="2.05037" gradientUnits="userSpaceOnUse">
<stop stop-color="#FCB933"/>
<stop offset="1" stop-color="#FEDE48"/>
</linearGradient>
<linearGradient id="paint2_linear_1602_1692" x1="12.2228" y1="0.0341797" x2="15.5201" y2="2.48703" gradientUnits="userSpaceOnUse">
<stop stop-color="#FCB933"/>
<stop offset="1" stop-color="#FEDE48"/>
</linearGradient>
<linearGradient id="paint3_linear_1602_1692" x1="14.1478" y1="3.34766" x2="21.3934" y2="9.23903" gradientUnits="userSpaceOnUse">
<stop stop-color="#FCB933"/>
<stop offset="1" stop-color="#FEDE48"/>
</linearGradient>
<linearGradient id="paint4_linear_1602_1692" x1="0.623628" y1="0.517578" x2="2.69712" y2="2.04649" gradientUnits="userSpaceOnUse">
<stop stop-color="#FCB933"/>
<stop offset="1" stop-color="#FEDE48"/>
</linearGradient>
<linearGradient id="paint5_linear_1602_1692" x1="0.142738" y1="-3.51146e-08" x2="3.46905" y2="2.44396" gradientUnits="userSpaceOnUse">
<stop stop-color="#FCB933"/>
<stop offset="1" stop-color="#FEDE48"/>
</linearGradient>
<linearGradient id="paint6_linear_1602_1692" x1="6.79821" y1="3.34766" x2="14.0438" y2="9.23903" gradientUnits="userSpaceOnUse">
<stop stop-color="#FCB933"/>
<stop offset="1" stop-color="#FEDE48"/>
</linearGradient>
<linearGradient id="paint7_linear_1602_1692" x1="4.04556" y1="4.83203" x2="18.7794" y2="23.256" gradientUnits="userSpaceOnUse">
<stop stop-color="#FCB933"/>
<stop offset="1" stop-color="#FEDE48"/>
</linearGradient>
<linearGradient id="paint8_linear_1602_1692" x1="12.5392" y1="12.2773" x2="15.0452" y2="14.1416" gradientUnits="userSpaceOnUse">
<stop stop-color="#FCB933"/>
<stop offset="1" stop-color="#FEDE48"/>
</linearGradient>
<linearGradient id="paint9_linear_1602_1692" x1="24.7826" y1="0.517578" x2="26.8317" y2="2.01332" gradientUnits="userSpaceOnUse">
<stop stop-color="#FCB933"/>
<stop offset="1" stop-color="#FEDE48"/>
</linearGradient>
<linearGradient id="paint10_linear_1602_1692" x1="24.3361" y1="0.0341797" x2="27.6334" y2="2.48703" gradientUnits="userSpaceOnUse">
<stop stop-color="#FCB933"/>
<stop offset="1" stop-color="#FEDE48"/>
</linearGradient>
</defs>
</svg>
