<svg width="32" height="32" viewBox="0 0 32 32" fill="none" xmlns="http://www.w3.org/2000/svg">
<path d="M30.4681 25.5198H7.7764C7.42303 25.5198 7.14011 25.8025 7.14011 26.1561C7.14011 26.2622 7.10466 26.3681 7.10466 26.4742C6.99853 26.9337 6.68061 27.2871 6.29181 27.4639C6.11501 27.5346 5.97366 27.57 5.86776 27.57H5.76163H5.69096C4.91331 27.57 4.27703 26.9337 4.27703 26.1561V2.50976C4.24158 2.01482 4.1709 1.62621 4.065 1.30806H24.2473C25.3076 1.30806 26.8629 2.15641 26.8629 2.722V23.5763C26.8629 23.9297 27.1456 24.2126 27.4992 24.2126C27.8526 24.2126 28.1355 23.9299 28.1355 23.5763V2.722C28.1355 1.0608 25.5553 0.000448755 24.212 0.000448755L2.15613 0C1.51985 0 0 0.2827 0 2.72155C0 3.07492 0.2827 3.35784 0.636289 3.35784H2.96922V30.6451C2.96922 30.9985 3.25192 31.2814 3.6055 31.2814H27.4638C27.8171 31.2814 28.1001 30.9987 28.1001 30.6451V28.8071H28.9484C29.5847 28.8071 31.1045 28.5244 31.1045 26.0856C31.1043 25.8026 30.8216 25.5199 30.468 25.5199L30.4681 25.5198ZM2.12056 1.34334C2.15601 1.34334 2.68618 1.37879 2.8982 2.12098H1.34292C1.48426 1.34334 1.90832 1.34334 2.12056 1.34334ZM26.8272 30.0797H4.27618V28.4892C4.70022 28.7367 5.19517 28.9133 5.69011 28.9133H26.827L26.8272 30.0797ZM28.9833 27.6055H8.05836C8.1997 27.3934 8.30583 27.1105 8.37651 26.8278H29.7609C29.6194 27.6055 29.1953 27.6055 28.9833 27.6055H28.9833Z" fill="white"/>
<path d="M25.1302 11.1692C25.2009 10.8865 25.0947 10.6036 24.8475 10.427L16.2583 5.37256C16.0463 5.26644 15.7988 5.26644 15.5868 5.37256L12.5823 7.13991V6.18547C12.5823 5.8321 12.2996 5.54918 11.9461 5.54918H9.82536C9.47198 5.54918 9.18907 5.83188 9.18907 6.18547V9.15446L7.06837 10.4268C6.8209 10.5682 6.67955 10.8863 6.78567 11.169C6.85635 11.4517 7.10382 11.664 7.42196 11.664L9.22451 11.6642V18.5923C9.22451 18.9456 9.50721 19.2285 9.8608 19.2285L14.1728 19.2283H22.0906C22.4439 19.2283 22.7268 18.9456 22.7268 18.592L22.7266 11.6289H24.5292C24.7769 11.6289 25.0241 11.4523 25.1303 11.1694L25.1302 11.1692ZM15.9402 6.68041L22.1256 10.3212H9.75482L15.9402 6.68041ZM10.4617 6.82176H11.2745V7.91754L10.4617 8.41249V6.82176ZM14.7737 17.9203V13.8555H17.0712V17.9203H14.7737ZM21.3836 17.9203H18.3791V13.184C18.3791 12.8306 18.0964 12.5477 17.7428 12.5477H14.1377C13.7844 12.5477 13.5014 12.8304 13.5014 13.184V17.9203H10.497V11.6287H21.4186L21.3836 17.9203Z" fill="white"/>
<path d="M7.7066 19.0869C7.35323 19.0869 7.07031 19.3696 7.07031 19.7232V21.5258C7.07031 21.8791 7.35301 22.162 7.7066 22.162H24.1779C24.5312 22.162 24.8142 21.8793 24.8142 21.5258V19.7232C24.8142 19.3698 24.5315 19.0869 24.1779 19.0869C23.8245 19.0869 23.5416 19.3696 23.5416 19.7232V20.9249H8.34255V19.7584C8.34255 19.405 8.05985 19.0869 7.70649 19.0869H7.7066Z" fill="white"/>
</svg>
