<svg width="42" height="42" viewBox="0 0 42 42" fill="none" xmlns="http://www.w3.org/2000/svg">
<path d="M20.825 0C9.34233 0 0 9.34232 0 20.825C0 32.3077 9.34233 41.65 20.825 41.65C32.3077 41.65 41.65 32.3077 41.65 20.825C41.65 9.34232 32.3077 0 20.825 0ZM20.825 39.3361C10.6183 39.3361 2.31389 31.0317 2.31389 20.825C2.31389 10.6183 10.6183 2.31389 20.825 2.31389C31.0317 2.31389 39.3361 10.6183 39.3361 20.825C39.3361 31.0317 31.0317 39.3361 20.825 39.3361Z" fill="#00AB01"/>
<path d="M31.6739 16.9365C31.6739 18.3892 30.4966 19.5664 29.044 19.5664C27.5917 19.5664 26.4141 18.3892 26.4141 16.9365C26.4141 15.4842 27.5917 14.3066 29.044 14.3066C30.4966 14.3066 31.6739 15.4842 31.6739 16.9365Z" fill="#00AB01"/>
<path d="M15.2364 16.9365C15.2364 18.3892 14.0588 19.5664 12.6065 19.5664C11.1538 19.5664 9.97656 18.3892 9.97656 16.9365C9.97656 15.4842 11.1538 14.3066 12.6065 14.3066C14.0588 14.3066 15.2364 15.4842 15.2364 16.9365Z" fill="#00AB01"/>
<path d="M20.8242 32.0842C25.5723 32.0842 30.2334 28.2354 30.2334 23.4873L11.4141 23.4876C11.4141 28.2355 16.0754 32.0846 20.8233 32.0846L20.8242 32.0842Z" fill="#00AB01"/>
</svg>
