<svg width="45" height="42" viewBox="0 0 45 42" fill="none" xmlns="http://www.w3.org/2000/svg">
<path d="M43.9484 16.9458C41.0659 16.8999 38.1843 17.0812 35.33 17.4872C38.7987 12.6719 40.6685 6.88948 40.6756 0.955177C40.672 0.697692 40.5395 0.459081 40.3226 0.320191C40.1057 0.181657 39.8337 0.160998 39.5983 0.265702L38.9704 0.566994C34.1761 2.6807 28.7948 5.08532 25.4562 7.96997C24.4277 5.987 23.1494 4.14435 21.6522 2.4865C21.0856 1.8127 20.4934 1.11329 19.8705 0.301231V0.301587C19.7024 0.0765048 19.4225 -0.0360273 19.1454 0.0102692C18.8662 0.056923 18.6347 0.253157 18.5432 0.520971C17.139 4.62721 16.2639 8.89582 15.9391 13.2238C14.4074 11.5745 12.1969 9.3793 7.21885 6.43339C6.98771 6.3034 6.70495 6.3034 6.47346 6.43339C6.2352 6.55483 6.07957 6.79416 6.06497 7.06126C5.74017 12.2636 6.48912 17.4775 8.26555 22.3779C2.44521 19.9683 2.03175 19.9683 1.72551 20.009C1.51005 20.031 1.31346 20.1425 1.18454 20.3163C1.05526 20.4901 1.00504 20.7105 1.04636 20.9232C2.36369 27.5145 4.23232 31.344 7.49988 34.1466C7.82111 34.4286 8.31044 34.3966 8.59247 34.075C8.87454 33.7537 8.84248 33.2644 8.52089 32.9824C5.71274 30.5981 4.01259 27.3205 2.80275 21.8422C3.75758 22.1742 5.55465 22.8633 8.92933 24.2725C9.49594 24.5072 9.49594 24.5072 9.61347 24.5175C9.88734 24.5439 10.1544 24.421 10.3129 24.1959C10.4703 23.9712 10.4978 23.6799 10.3845 23.4302C8.4443 19.2844 7.38225 13.633 7.52548 8.39982C12.0028 11.172 13.8615 13.1938 15.2451 14.7048L16.0108 15.5268C16.17 15.7665 16.4499 15.8968 16.7359 15.864C16.9431 15.8395 17.1319 15.7341 17.2612 15.5702C17.3904 15.4064 17.4496 15.1981 17.425 14.9908C17.425 11.0342 18.446 5.93353 19.5589 2.34906C19.8805 2.74223 20.1868 3.10977 20.4931 3.47228H20.4934C22.1427 5.28074 23.5045 7.33172 24.532 9.55291C24.6342 9.78226 24.8433 9.94644 25.0904 9.99132C25.3376 10.0362 25.5908 9.95642 25.7675 9.77763C28.6828 6.86226 34.3909 4.26362 39.124 2.15494C38.833 8.00983 36.657 13.6133 32.9208 18.1308C32.7178 18.3847 32.6975 18.7391 32.8695 19.0147C33.0419 19.2904 33.3695 19.4271 33.6865 19.3559C36.6228 18.7547 39.614 18.4641 42.6113 18.488C40.1198 22.1897 36.1781 26.0342 31.8285 28.9699C31.5571 29.1529 31.4321 29.4884 31.5176 29.8043C31.6031 30.1206 31.8798 30.3471 32.2064 30.3688C35.3055 30.5729 38.4149 31.8086 40.9524 33.0184C35.8825 36.8786 23.4148 41.019 13.8419 36.4801C13.4725 36.3668 13.0762 36.5442 12.9148 36.8953C12.7535 37.2465 12.8771 37.6624 13.2037 37.869C16.406 39.3338 19.8937 40.07 23.4148 40.0236C31.6347 40.0236 39.5538 36.5057 42.898 33.3863C43.0821 33.2154 43.1704 32.965 43.1348 32.7168C43.0992 32.4682 42.9439 32.2527 42.7196 32.1406C40.3861 30.9714 37.4302 29.6387 34.3311 29.077C38.6557 25.8657 42.4542 21.8578 44.6899 18.0846H44.6896C44.8274 17.8478 44.8274 17.5554 44.6896 17.3185C44.5283 17.07 44.2455 16.9275 43.9495 16.946L43.9484 16.9458Z" fill="white"/>
<path d="M14.4286 33.5396C17.0968 33.9071 19.7867 34.0913 22.48 34.0909C24.0118 34.0909 25.5436 34.0297 27.0749 33.9121C27.4979 33.8783 27.8131 33.5083 27.7793 33.0852C27.7455 32.6621 27.3754 32.3469 26.9524 32.3808C23.2956 32.6667 19.6195 32.6001 15.9754 32.1817C17.5427 30.844 19.0389 29.4348 20.504 27.9643C20.5582 27.9693 20.613 27.9693 20.6671 27.9643L29.5763 25.9834H29.5766C29.9897 25.8915 30.2501 25.4823 30.1585 25.0693C30.067 24.6565 29.6578 24.3958 29.2447 24.4873L22.3931 26.0141C25.8258 22.2387 28.8277 18.0929 31.3431 13.6532C31.4564 13.4758 31.4913 13.2596 31.4403 13.0556C31.3894 12.8515 31.2566 12.6773 31.0732 12.5741C30.8901 12.4708 30.6722 12.4476 30.4713 12.5096C30.2701 12.5719 30.1038 12.714 30.0105 12.9028C28.1354 16.1974 25.9833 19.3264 23.5775 22.256C23.7157 20.0839 23.6384 17.9037 23.3478 15.7466C23.2926 15.3235 22.9055 15.0254 22.4824 15.0802C22.0593 15.1351 21.7613 15.5226 21.8161 15.9457C22.1762 18.7131 22.1762 21.5156 21.8161 24.2831C20.2427 26.0599 18.5795 27.7555 16.8331 29.3631C16.6806 26.9132 16.2768 24.4858 15.6283 22.1182C15.5787 21.9173 15.4502 21.7446 15.2718 21.6399C15.093 21.5352 14.8796 21.5074 14.6802 21.5626C14.4804 21.6178 14.312 21.7514 14.2126 21.933C14.1132 22.1146 14.0915 22.329 14.1528 22.5267C14.8832 25.191 15.2878 27.9339 15.3576 30.6958C10.8436 34.62 5.82661 37.9253 0.439331 40.524C0.25378 40.613 0.111325 40.7725 0.0436675 40.967C-0.024354 41.1614 -0.012602 41.3748 0.0767882 41.5603C0.26305 41.9464 0.727091 42.1088 1.11349 41.9229C5.84261 39.6447 10.2962 36.8337 14.3879 33.5445L14.4286 33.5396Z" fill="white"/>
</svg>
