<svg width="38" height="38" viewBox="0 0 38 38" fill="none" xmlns="http://www.w3.org/2000/svg">
<path d="M19 0C8.52361 0 0 8.52361 0 19C0 29.4764 8.52361 38 19 38C29.4764 38 38 29.4764 38 19C38 8.52361 29.4764 0 19 0ZM19 35.8889C9.68774 35.8889 2.11111 28.3123 2.11111 19C2.11111 9.68774 9.68774 2.11111 19 2.11111C28.3123 2.11111 35.8889 9.68774 35.8889 19C35.8889 28.3123 28.3123 35.8889 19 35.8889Z" fill="#AEF557"/>
<path d="M28.8965 15.4522C28.8965 16.7775 27.8224 17.8516 26.4971 17.8516C25.1721 17.8516 24.0977 16.7775 24.0977 15.4522C24.0977 14.1271 25.1721 13.0527 26.4971 13.0527C27.8224 13.0527 28.8965 14.1271 28.8965 15.4522Z" fill="#AEF557"/>
<path d="M13.9004 15.4522C13.9004 16.7775 12.826 17.8516 11.501 17.8516C10.1757 17.8516 9.10156 16.7775 9.10156 15.4522C9.10156 14.1271 10.1757 13.0527 11.501 13.0527C12.826 13.0527 13.9004 14.1271 13.9004 15.4522Z" fill="#AEF557"/>
<path d="M25.7953 22.8028C21.9848 26.1995 16.0148 26.1995 12.2035 22.8028C11.7685 22.415 11.1011 22.453 10.7129 22.8886C10.325 23.3238 10.3633 23.9909 10.7986 24.3791C13.0979 26.4281 16.0487 27.4533 18.9995 27.4533C21.9503 27.4533 24.9008 26.4287 27.1997 24.3791C27.635 23.9913 27.6733 23.3239 27.2854 22.8886C26.8975 22.453 26.2298 22.415 25.7951 22.8028H25.7953Z" fill="#AEF557"/>
</svg>
