<svg width="24" height="21" viewBox="0 0 24 21" fill="none" xmlns="http://www.w3.org/2000/svg">
<path d="M9.40073 11.2281C9.05638 10.8345 8.44146 10.7854 8.04787 11.1298C7.65428 11.4741 7.60522 12.089 7.94956 12.4826L10.0404 14.8685C10.2126 15.0653 10.483 15.1883 10.7536 15.1883C11.0241 15.1883 11.2947 15.0653 11.4668 14.8685L15.3776 10.4411C15.7219 10.0475 15.6974 9.43259 15.2793 9.08823C14.8857 8.74389 14.2708 8.76843 13.9264 9.18655L10.7781 12.8022L9.40073 11.2281Z" fill="white"/>
<path d="M23.0283 8.49823L19.634 5.89103V2.89024C19.634 2.69345 19.4617 2.52136 19.2651 2.52136H18.1828C17.986 2.52136 17.8139 2.69362 17.8139 2.89024V4.48893L12.2551 0.184527C11.9353 -0.0615091 11.4679 -0.0615091 11.1483 0.184527L0.350366 8.49818C0.153571 8.64574 0.0305575 8.86706 0.00602237 9.1131C-0.0185123 9.35913 0.030557 9.58048 0.178282 9.77725C0.325835 9.97405 0.547161 10.0971 0.793197 10.1216C1.03923 10.1461 1.26058 10.0971 1.45735 9.94934L2.36738 9.26063V19.419C2.36738 19.8864 2.76097 20.28 3.22835 20.28H20.1262C20.5936 20.28 20.9872 19.8864 20.9872 19.419L20.987 9.23603L21.897 9.92474C22.0693 10.0723 22.3152 10.1215 22.5612 10.097C22.8072 10.0725 23.0286 9.94944 23.1761 9.75265C23.3237 9.55586 23.3974 9.33453 23.3484 9.0885C23.3237 8.867 23.2007 8.64567 23.0286 8.49814L23.0283 8.49823ZM19.2651 18.5582H4.11355V7.90791L4.16279 7.88337L11.6894 2.05398L11.7386 2.10322L19.2652 7.90802L19.2651 18.5582Z" fill="white"/>
</svg>
