<svg width="34" height="34" viewBox="0 0 34 34" fill="none" xmlns="http://www.w3.org/2000/svg">
<path d="M17.0001 13.1775L15.4843 15.8125C15.1443 16.3933 15.4276 16.875 16.0934 16.875H17.8926C18.5726 16.875 18.8418 17.3567 18.5018 17.9375L17.0001 20.5725" stroke="black" stroke-width="1.5" stroke-linecap="round" stroke-linejoin="round"/>
<path d="M11.7581 27.5568V25.9134C8.49977 23.9443 5.82227 20.1051 5.82227 16.0251C5.82227 9.01259 12.2681 3.51592 19.5498 5.10259C22.7514 5.81092 25.5564 7.93592 27.0156 10.8684C29.9764 16.8184 26.8598 23.1368 22.2839 25.8993V27.5426C22.2839 27.9534 22.4398 28.9026 20.9239 28.9026H13.1181C11.5598 28.9168 11.7581 28.3076 11.7581 27.5568Z" stroke="black" stroke-width="1.5" stroke-linecap="round" stroke-linejoin="round"/>
<path d="M12.0415 33.1667C15.2857 32.2459 18.714 32.2459 21.9582 33.1667" stroke="black" stroke-width="1.5" stroke-linecap="round" stroke-linejoin="round"/>
</svg>
