<svg width="309" height="142" viewBox="0 0 309 142" fill="none" xmlns="http://www.w3.org/2000/svg">
<g opacity="0.3">
<circle opacity="0.7" cx="76" cy="21" r="8" fill="white"/>
<circle opacity="0.7" cx="93" cy="4" r="4" fill="#86E2FF"/>
<ellipse opacity="0.2" cx="60.5" cy="50" rx="5.5" ry="5" fill="white"/>
<circle opacity="0.7" cx="54" cy="33" r="4" fill="white"/>
<circle opacity="0.5" cx="38" cy="14" r="4" fill="white"/>
<circle opacity="0.9" cx="75" cy="75" r="4" fill="#86E2FF"/>
<circle opacity="0.4" cx="54" cy="91" r="4" fill="white"/>
<ellipse opacity="0.4" cx="68.5" cy="105" rx="5.5" ry="5" fill="white"/>
<circle opacity="0.6" cx="45" cy="74" r="8" fill="white"/>
<circle opacity="0.2" cx="14.5" cy="43.5" r="6.5" fill="white"/>
<ellipse cx="35.5" cy="51" rx="3.5" ry="4" fill="#86E2FF"/>
<circle opacity="0.8" cx="4" cy="62" r="4" fill="#86E2FF"/>
<circle opacity="0.9" cx="21" cy="79" r="5" fill="white"/>
<ellipse opacity="0.4" cx="21" cy="110.5" rx="3" ry="2.5" fill="white"/>
<circle opacity="0.3" cx="47" cy="113" r="8" fill="white"/>
<circle opacity="0.6" cx="70" cy="125" r="4" fill="#86E2FF"/>
<circle opacity="0.7" cx="93.5" cy="135.5" r="6.5" fill="white"/>
</g>
<g opacity="0.3">
<circle opacity="0.7" r="8" transform="matrix(-1 0 0 1 233 21)" fill="white"/>
<circle opacity="0.7" r="4" transform="matrix(-1 0 0 1 216 4)" fill="#86E2FF"/>
<ellipse opacity="0.2" rx="5.5" ry="5" transform="matrix(-1 0 0 1 248.5 50)" fill="white"/>
<circle opacity="0.7" r="4" transform="matrix(-1 0 0 1 255 33)" fill="white"/>
<circle opacity="0.5" r="4" transform="matrix(-1 0 0 1 271 14)" fill="white"/>
<circle opacity="0.9" r="4" transform="matrix(-1 0 0 1 234 75)" fill="#86E2FF"/>
<circle opacity="0.4" r="4" transform="matrix(-1 0 0 1 255 91)" fill="white"/>
<ellipse opacity="0.4" rx="5.5" ry="5" transform="matrix(-1 0 0 1 240.5 105)" fill="white"/>
<circle opacity="0.6" r="8" transform="matrix(-1 0 0 1 264 74)" fill="white"/>
<circle opacity="0.2" r="6.5" transform="matrix(-1 0 0 1 294.5 43.5)" fill="white"/>
<ellipse rx="3.5" ry="4" transform="matrix(-1 0 0 1 273.5 51)" fill="#86E2FF"/>
<circle opacity="0.8" r="4" transform="matrix(-1 0 0 1 305 62)" fill="#86E2FF"/>
<circle opacity="0.9" r="5" transform="matrix(-1 0 0 1 288 79)" fill="white"/>
<ellipse opacity="0.4" rx="3" ry="2.5" transform="matrix(-1 0 0 1 288 110.5)" fill="white"/>
<circle opacity="0.3" r="8" transform="matrix(-1 0 0 1 262 113)" fill="white"/>
<circle opacity="0.6" r="4" transform="matrix(-1 0 0 1 239 125)" fill="#86E2FF"/>
<circle opacity="0.7" r="6.5" transform="matrix(-1 0 0 1 215.5 135.5)" fill="white"/>
</g>
</svg>
