<svg width="13" height="15" viewBox="0 0 13 15" fill="none" xmlns="http://www.w3.org/2000/svg">
<path fill-rule="evenodd" clip-rule="evenodd" d="M0 6.23832C0 2.78842 2.88291 0 6.37008 0C9.86709 0 12.75 2.78842 12.75 6.23832C12.75 7.97677 12.1178 9.59072 11.0771 10.9587C9.9291 12.4676 8.51411 13.7823 6.9214 14.8143C6.55688 15.0528 6.2279 15.0708 5.82784 14.8143C4.22605 13.7823 2.81106 12.4676 1.67287 10.9587C0.631487 9.59072 0 7.97677 0 6.23832ZM4.27316 6.43378C4.27316 7.5895 5.21623 8.49847 6.37257 8.49847C7.52967 8.49847 8.48182 7.5895 8.48182 6.43378C8.48182 5.28707 7.52967 4.33384 6.37257 4.33384C5.21623 4.33384 4.27316 5.28707 4.27316 6.43378Z" fill="white"/>
</svg>
