<svg width="33" height="33" viewBox="0 0 33 33" fill="none" xmlns="http://www.w3.org/2000/svg">
<path d="M10.625 26.75H10C5 26.75 2.5 25.5 2.5 19.25V13C2.5 8 5 5.5 10 5.5H20C25 5.5 27.5 8 27.5 13V19.25C27.5 24.25 25 26.75 20 26.75H19.375C18.9875 26.75 18.6125 26.9375 18.375 27.25L16.5 29.75C15.675 30.85 14.325 30.85 13.5 29.75L11.625 27.25C11.425 26.975 10.9625 26.75 10.625 26.75Z" stroke="white" stroke-width="1.5" stroke-miterlimit="10" stroke-linecap="round" stroke-linejoin="round"/>
<path d="M19.997 16.75H20.0083" stroke="white" stroke-width="2" stroke-linecap="round" stroke-linejoin="round"/>
<path d="M14.9931 16.75H15.0044" stroke="white" stroke-width="2" stroke-linecap="round" stroke-linejoin="round"/>
<path d="M9.99313 16.75H10.0044" stroke="white" stroke-width="2" stroke-linecap="round" stroke-linejoin="round"/>
<circle cx="27" cy="6" r="6" fill="#63B9FF"/>
</svg>
