<svg width="24" height="21" viewBox="0 0 24 21" fill="none" xmlns="http://www.w3.org/2000/svg">
<path d="M14.8614 13.6061C14.4452 13.6061 14.1269 13.9245 14.1269 14.3407V17.8172H10.0382V3.1764H14.1269V6.65299C14.1269 7.06918 14.4452 7.38753 14.8614 7.38753C15.2776 7.38753 15.5959 7.06919 15.5959 6.65299L15.5958 2.44209C15.5958 2.0259 15.2774 1.70755 14.8612 1.70755H10.0381V0.72832C10.0381 0.508013 9.94023 0.287714 9.76877 0.165255C9.5973 0.018383 9.377 -0.0306312 9.15669 0.0183829L0.587636 1.73215C0.244882 1.80559 0 2.09933 0 2.44207V18.5519C0 18.8946 0.2449 19.213 0.587636 19.2618L9.15669 20.9756C9.2057 20.9756 9.25455 21 9.30356 21C9.47503 21 9.64632 20.951 9.76878 20.8285C9.94025 20.6817 10.0381 20.4858 10.0381 20.2655V19.2862H14.8613C15.2774 19.2862 15.5958 18.9679 15.5958 18.5517L15.5956 14.3408C15.5956 13.9244 15.2775 13.6063 14.8613 13.6063L14.8614 13.6061ZM8.56928 19.3596L1.4692 17.9396V3.05394L8.56928 1.63393V19.3596Z" fill="white"/>
<path d="M7.58972 10.4964C7.58972 11.1454 7.06355 11.6716 6.4144 11.6716C5.76542 11.6716 5.23926 11.1454 5.23926 10.4964C5.23926 9.84746 5.76542 9.32129 6.4144 9.32129C7.06355 9.32129 7.58972 9.84746 7.58972 10.4964Z" fill="white"/>
<path d="M23.0394 9.98323L19.8321 6.75156C19.5384 6.45781 19.0732 6.45781 18.7794 6.75156C18.4857 7.0453 18.4857 7.51049 18.7794 7.80424L20.7381 9.76292H12.6828C12.2666 9.76292 11.9482 10.0813 11.9482 10.4975C11.9482 10.9137 12.2666 11.232 12.6828 11.232H20.7377L18.779 13.1907C18.4853 13.4844 18.4853 13.9496 18.779 14.2434C18.9259 14.3902 19.1218 14.4637 19.2932 14.4637C19.4891 14.4637 19.6604 14.3902 19.8075 14.2434L23.0393 11.0115C23.1862 10.8646 23.2596 10.6932 23.2596 10.4973C23.2596 10.3016 23.1862 10.1057 23.0393 9.98323H23.0394Z" fill="white"/>
</svg>
