<svg width="20" height="20" viewBox="0 0 20 20" fill="none" xmlns="http://www.w3.org/2000/svg">
<path d="M10 0C4.48611 0 0 4.48611 0 10C0 15.5139 4.48611 20 10 20C15.5139 20 20 15.5139 20 10C20 4.48611 15.5139 0 10 0ZM10 18.8889C5.09881 18.8889 1.11111 14.9012 1.11111 10C1.11111 5.09881 5.09881 1.11111 10 1.11111C14.9012 1.11111 18.8889 5.09881 18.8889 10C18.8889 14.9012 14.9012 18.8889 10 18.8889Z" fill="#FF8B2F"/>
<path d="M15.2093 8.13298C15.2093 8.83052 14.644 9.39583 13.9465 9.39583C13.2491 9.39583 12.6836 8.83052 12.6836 8.13298C12.6836 7.43559 13.2491 6.87012 13.9465 6.87012C14.644 6.87012 15.2093 7.43559 15.2093 8.13298Z" fill="#FF8B2F"/>
<path d="M7.31673 8.13298C7.31673 8.83052 6.75125 9.39583 6.05387 9.39583C5.35633 9.39583 4.79102 8.83052 4.79102 8.13298C4.79102 7.43559 5.35633 6.87012 6.05387 6.87012C6.75125 6.87012 7.31673 7.43559 7.31673 8.13298Z" fill="#FF8B2F"/>
<path d="M5.68399 13.4842C5.45489 13.6884 5.43474 14.0396 5.63888 14.2688C5.84303 14.498 6.19428 14.518 6.42341 14.3139C8.42892 12.5261 11.571 12.5261 13.577 14.3139C13.683 14.4083 13.8149 14.4548 13.9465 14.4548C14.0994 14.4548 14.2519 14.3922 14.3615 14.2691C14.5656 14.04 14.5455 13.6889 14.3164 13.4846C11.8961 11.3268 8.10407 11.3268 5.68423 13.4842H5.68399Z" fill="#FF8B2F"/>
</svg>
