<svg width="29" height="21" viewBox="0 0 29 21" fill="none" xmlns="http://www.w3.org/2000/svg">
<path d="M20.1626 17.7179V20.5375H0.25V17.7474C0.25 17.1601 0.514279 16.602 0.954923 16.2202C2.92269 14.6048 5.00798 13.4006 6.0946 12.8132C6.21199 13.0775 7.35739 15.7209 8.09163 16.8075C8.12092 16.8368 8.17972 16.8368 8.20902 16.7782C8.35591 16.3378 8.91394 14.7812 9.79487 14.8986C9.85367 14.8986 9.88297 14.8398 9.85367 14.8105C9.20754 14.2819 7.53358 12.9308 6.91671 12.1966V10.405C6.62293 9.87648 6.41745 9.34772 6.35863 8.84844C6.15295 8.81914 5.85938 8.52536 5.53629 7.43875C5.15442 6.02906 5.50699 5.76458 5.85936 5.76458C5.68318 4.97155 5.18391 2.12269 7.29852 0.859853C7.29852 0.859853 6.85807 0.507481 6.88736 0.0082397C6.88736 0.0082397 9.29577 0.272519 10.4412 0.0375352C11.6159 -0.197448 12.8496 0.712984 13.0551 1.59412C13.0551 1.59412 15.4047 1.59412 14.4942 5.79387C14.8761 5.76458 15.2578 6.02886 14.8466 7.46805C14.5528 8.55467 14.2593 8.84842 14.0243 8.87773C13.9362 9.37699 13.76 9.90577 13.4662 10.4343V12.2259C12.8201 12.9894 11.1754 14.3112 10.5292 14.8398C10.4704 14.8691 10.5292 14.9572 10.588 14.9279C11.4692 14.8105 12.0272 16.367 12.1739 16.8075C12.2032 16.8663 12.262 16.8663 12.2913 16.8368C13.0255 15.7207 14.1709 13.1068 14.2883 12.8425C15.3749 13.4299 17.4602 14.6048 19.428 16.2495C19.8981 16.5725 20.1624 17.1306 20.1624 17.7179L20.1626 17.7179ZM28.856 4.32538C28.856 6.675 26.9763 8.55465 24.6267 8.55465H21.7485L19.8101 10.4931C19.6927 10.6105 19.4577 10.5224 19.4577 10.3462V8.31965C17.7836 7.76158 16.5501 6.17572 16.5501 4.29607C16.5501 1.94645 18.4297 0.0667946 20.7794 0.0667946H24.6267C26.947 0.0960902 28.856 2.00524 28.856 4.32533L28.856 4.32538ZM20.8968 3.85562L20.2507 3.79682L20.0157 3.20948C19.9864 3.09209 19.81 3.09209 19.7807 3.20948L19.5457 3.79682L18.9289 3.85562C18.8115 3.85562 18.7527 4.00251 18.8408 4.0906L19.3107 4.50177L19.1639 5.11863C19.1346 5.23602 19.252 5.32432 19.3695 5.26552L19.8981 4.94245L20.4266 5.26552C20.5147 5.32432 20.6616 5.23623 20.6323 5.11863L20.4854 4.50177L20.9554 4.0906C21.0437 4.00231 21.0142 3.85562 20.8968 3.85562H20.8968ZM23.6869 3.85562L23.0408 3.79682L22.8058 3.20948C22.747 3.09209 22.6001 3.09209 22.5708 3.20948L22.3358 3.79682L21.7189 3.85562C21.6015 3.85562 21.5428 4.00251 21.6308 4.0906L22.1008 4.50177L21.9539 5.11863C21.9246 5.23602 22.042 5.32432 22.1596 5.26552L22.6882 4.94245L23.2167 5.26552C23.3048 5.32432 23.4517 5.23623 23.4224 5.11863L23.2755 4.50177L23.7455 4.0906C23.8338 4.00231 23.775 3.85562 23.6869 3.85562H23.6869ZM26.4477 3.85562L25.8308 3.79682L25.5958 3.20948C25.5665 3.09209 25.3901 3.09209 25.3608 3.20948L25.1261 3.79682L24.5092 3.85562C24.3918 3.85562 24.333 4.00251 24.4211 4.0906L24.8911 4.50177L24.7442 5.11863C24.7149 5.23602 24.8323 5.32432 24.9499 5.26552L25.4784 4.94245L26.007 5.26552C26.0951 5.32432 26.2419 5.23623 26.2126 5.11863L26.0658 4.50177L26.5357 4.0906C26.6238 4.00231 26.565 3.85562 26.4476 3.85562H26.4477Z" fill="white"/>
</svg>
