<svg width="32" height="50" viewBox="0 0 32 50" fill="none" xmlns="http://www.w3.org/2000/svg">
<path d="M15.9648 49.9392C16.3102 49.9392 16.5893 49.6596 16.5893 49.3147V46.3731C17.1067 44.9549 18.7569 43.4184 19.3733 42.881C20.6119 43.1693 25.0061 43.9476 28.2913 41.4715C30.705 39.6528 31.9298 36.5277 31.9298 32.182C31.9298 31.8981 31.7381 31.6494 31.4633 31.5775C31.2286 31.517 25.6816 30.1128 21.8946 33.1259C19.6368 34.9229 18.5236 37.8775 18.5837 41.9111C18.1778 42.2612 17.3342 43.037 16.5894 43.9746L16.5889 31.5884C18.4853 31.321 20.0998 29.9051 20.9578 27.9207C21.8032 28.2565 22.6604 28.4321 23.4818 28.4321C24.8903 28.4321 26.1908 27.9464 27.1338 27.0048C28.2265 25.9129 28.7204 24.3663 28.5245 22.649C28.4544 22.0345 28.2971 21.4251 28.0624 20.8346C30.3289 19.8573 31.7715 17.927 31.7715 15.8191C31.7715 13.6458 30.2593 11.7551 28.0463 10.8017C28.9579 8.50909 28.6265 6.1245 27.1343 4.63323C25.5978 3.09925 23.1971 2.82876 20.9611 3.71207C19.9833 1.44422 18.0504 0 15.9393 0C13.7638 0 11.8723 1.5109 10.9176 3.72211C8.62189 2.81053 6.23608 3.14285 4.74391 4.63325C3.65115 5.72514 3.15731 7.27172 3.35321 8.98899C3.42333 9.60353 3.58056 10.2129 3.81531 10.8034C1.5488 11.7812 0.106245 13.711 0.106245 15.819C0.106245 17.9923 1.61837 19.8829 3.83136 20.8363C2.91979 23.1289 3.25123 25.5135 4.74338 27.0048C5.70243 27.9625 6.99819 28.4286 8.38097 28.4286C9.21284 28.4286 10.0744 28.2518 10.9141 27.9208C11.7978 29.9752 13.4659 31.3507 15.3404 31.5945V43.9528C14.5956 43.0151 13.7511 42.239 13.346 41.8888C13.4066 37.8557 12.2929 34.9006 10.0351 33.1036C6.24948 30.0897 0.702054 31.4938 0.46646 31.5553C0.191642 31.6271 0 31.8754 0 32.1598C0 36.5056 1.22424 39.631 3.63849 41.4493C6.92419 43.9248 11.317 43.147 12.5565 42.8587C13.1727 43.3962 14.8225 44.9328 15.3404 46.3508V49.3176C15.3404 49.6604 15.6196 49.94 15.965 49.94L15.9648 49.9392ZM27.546 40.4711C25.2877 42.1763 22.2926 42.0726 20.6309 41.8395L30.633 33.5927C30.4039 36.7851 29.3686 39.0956 27.5459 40.471L27.546 40.4711ZM22.6671 34.1089C24.3221 32.7883 26.4454 32.4586 28.1522 32.4586C28.8186 32.4586 29.4222 32.5091 29.91 32.5706L19.8449 40.8697C19.972 37.7731 20.9193 35.503 22.6671 34.1089V34.1089ZM4.38936 40.4498C2.5636 39.0744 1.52656 36.7635 1.29755 33.5679L11.3014 41.8157C9.64155 42.0522 6.65554 42.1563 4.38948 40.4498H4.38936ZM2.01659 32.5427C3.74781 32.3223 6.94733 32.2413 9.25699 34.0788C11.0092 35.4729 11.9573 37.7451 12.084 40.8435L2.01659 32.5427ZM26.2516 26.1211C25.1044 27.2674 23.2107 27.4892 21.3645 26.737C21.5317 26.0802 21.6219 25.3821 21.6219 24.6585C21.6219 22.7261 20.4616 20.5053 19.6184 19.1429C20.1989 18.5018 20.6188 17.7117 20.8017 16.8346C22.8482 17.3385 24.482 18.0903 25.3304 18.9386C26.4323 20.0392 27.126 21.4081 27.2841 22.7919C27.4357 24.1211 27.0685 25.3036 26.2515 26.1211L26.2516 26.1211ZM15.939 19.5323C13.8889 19.5323 12.2208 17.8664 12.2208 15.8181C12.2208 13.7694 13.8894 12.1039 15.939 12.1039C17.9891 12.1039 19.6572 13.7698 19.6572 15.8181C19.6572 17.8664 17.9891 19.5323 15.939 19.5323ZM30.5228 15.8185C30.5228 17.4386 29.3416 18.9342 27.5028 19.706C27.1505 19.1172 26.7197 18.5602 26.2137 18.0541C24.8456 16.6878 22.4541 15.937 20.8945 15.5698C20.8488 14.6626 20.5631 13.819 20.0927 13.1034C21.8979 12.0128 23.5861 11.3896 24.7869 11.3896C27.9498 11.3891 30.5229 13.3764 30.5229 15.8186L30.5228 15.8185ZM26.2519 5.51635C27.3991 6.66143 27.6217 8.55331 26.8678 10.3983C26.2101 10.231 25.5111 10.1408 24.7868 10.1408C22.8518 10.1408 20.6292 11.3002 19.2659 12.1434C18.6239 11.5629 17.8334 11.1439 16.9549 10.961C17.4588 8.91616 18.2118 7.28463 19.0603 6.43758C21.2968 4.20151 24.5232 3.78864 26.2519 5.51643L26.2519 5.51635ZM15.9393 1.24858C17.5609 1.24858 19.0574 2.42799 19.83 4.26558C19.2469 4.61227 18.6894 5.0417 18.1772 5.55303C16.8096 6.91977 16.0579 9.3087 15.6903 10.8679C14.7826 10.9136 13.9376 11.1993 13.2216 11.6688C12.1297 9.8657 11.5056 8.17841 11.5056 6.97859C11.5056 3.81921 13.4951 1.24864 15.9393 1.24864V1.24858ZM5.62676 5.51635C6.77395 4.3705 8.66762 4.14795 10.5143 4.90051C10.3471 5.55729 10.2569 6.25542 10.2569 6.97893C10.2569 8.91184 11.4176 11.1331 12.2604 12.4955C11.6799 13.1366 11.2609 13.9258 11.0771 14.8038C9.0297 14.2999 7.39638 13.5481 6.54799 12.6997C5.44609 11.5991 4.75233 10.2303 4.59423 8.8465C4.44222 7.51545 4.80938 6.33302 5.62688 5.51642L5.62676 5.51635ZM1.35586 15.8185C1.35586 14.1987 2.53706 12.7027 4.37587 11.9309C4.72823 12.5197 5.15896 13.0767 5.665 13.5828C7.03307 14.9496 9.42457 15.6999 10.9846 16.0671C11.0304 16.9743 11.3161 17.8179 11.7865 18.5326C9.98121 19.6241 8.29259 20.2465 7.09188 20.2465C3.92904 20.2473 1.35591 18.2605 1.35591 15.8183L1.35586 15.8185ZM5.62676 26.121C4.47956 24.9759 4.25702 23.0841 5.01092 21.2391C5.66857 21.4064 6.36761 21.4965 7.0919 21.4965C9.02693 21.4965 11.2504 20.3363 12.6128 19.4939C13.2548 20.0745 14.0453 20.4935 14.9229 20.6763C14.419 22.7212 13.666 24.3527 12.8175 25.2007C10.581 27.435 7.35414 27.8469 5.62683 26.121L5.62676 26.121ZM12.0452 27.364C12.6284 27.0173 13.1889 26.5961 13.7012 26.084C15.0688 24.7173 15.8196 22.3283 16.1881 20.7692C17.0958 20.7243 17.9407 20.4381 18.6575 19.9682C19.7503 21.7722 20.3736 23.4591 20.3736 24.658C20.3736 27.8178 18.3845 30.3887 15.9398 30.3887C14.3157 30.3883 12.8161 29.2058 12.0452 27.3639V27.364Z" fill="white"/>
</svg>
