<svg width="18" height="30" viewBox="0 0 18 30" fill="none" xmlns="http://www.w3.org/2000/svg">
<path d="M15.1938 0H1.98176C1.45624 0 0.952148 0.208792 0.580598 0.580598C0.208798 0.952177 0 1.45625 0 1.98176V27.0844C0 27.6099 0.208792 28.114 0.580598 28.4855C0.952177 28.8573 1.45625 29.0661 1.98176 29.0661H15.1938C15.7194 29.0661 16.2234 28.8573 16.595 28.4855C16.9668 28.114 17.1756 27.6099 17.1756 27.0844V1.98176C17.1756 1.45624 16.9668 0.952149 16.595 0.580598C16.2234 0.208798 15.7193 0 15.1938 0ZM1.98176 1.32132H15.1938C15.369 1.32132 15.5369 1.39077 15.661 1.51463C15.7848 1.63871 15.8543 1.80659 15.8543 1.98176V23.7811H1.32178V1.98176C1.32178 1.61704 1.6175 1.32133 1.98221 1.32133L1.98176 1.32132ZM15.1938 27.7444H1.98176C1.61703 27.7444 1.32132 27.4486 1.32132 27.0839V25.1022H15.8538V27.0839C15.8538 27.2591 15.7844 27.427 15.6605 27.5511C15.5364 27.6749 15.3686 27.7444 15.1934 27.7444L15.1938 27.7444Z" fill="white"/>
<path d="M7.26612 3.96367H9.90854H9.90832C10.2733 3.96367 10.569 3.66796 10.569 3.30324C10.569 2.9383 10.2733 2.64258 9.90832 2.64258H7.26613C6.90119 2.64258 6.60547 2.9383 6.60547 3.30324C6.60547 3.66796 6.90119 3.96367 7.26613 3.96367H7.26612Z" fill="white"/>
<path d="M9.90833 25.7627H7.26613C6.90119 25.7627 6.60547 26.0586 6.60547 26.4234C6.60547 26.7881 6.90119 27.084 7.26613 27.084H9.90856H9.90834C10.2733 27.084 10.569 26.7881 10.569 26.4234C10.569 26.0586 10.2733 25.7627 9.90834 25.7627H9.90833Z" fill="white"/>
<path d="M3.30323 8.5877H3.96389H3.96367C4.32861 8.5877 4.62433 8.29198 4.62433 7.92704C4.62433 7.56231 4.32861 7.2666 3.96367 7.2666H3.30324C2.9383 7.2666 2.64258 7.56232 2.64258 7.92704C2.64258 8.29198 2.9383 8.5877 3.30324 8.5877H3.30323Z" fill="white"/>
<path d="M6.60597 8.5877H13.8722C14.2372 8.5877 14.5329 8.29198 14.5329 7.92704C14.5329 7.56231 14.2372 7.2666 13.8722 7.2666H6.60597C6.24125 7.2666 5.94531 7.56232 5.94531 7.92704C5.94531 8.29198 6.24125 8.5877 6.60597 8.5877Z" fill="white"/>
<path d="M3.30323 11.8904H3.96389H3.96367C4.32861 11.8904 4.62433 11.5947 4.62433 11.23C4.62433 10.8651 4.32861 10.5693 3.96367 10.5693H3.30324C2.9383 10.5693 2.64258 10.8651 2.64258 11.23C2.64258 11.5947 2.9383 11.8904 3.30324 11.8904H3.30323Z" fill="white"/>
<path d="M6.60597 11.8904H13.8722C14.2372 11.8904 14.5329 11.5947 14.5329 11.23C14.5329 10.8651 14.2372 10.5693 13.8722 10.5693H6.60597C6.24125 10.5693 5.94531 10.8651 5.94531 11.23C5.94531 11.5947 6.24125 11.8904 6.60597 11.8904Z" fill="white"/>
<path d="M3.30323 15.1934H3.96389H3.96367C4.32861 15.1934 4.62433 14.8975 4.62433 14.5327C4.62433 14.168 4.32861 13.8721 3.96367 13.8721H3.30324C2.9383 13.8721 2.64258 14.168 2.64258 14.5327C2.64258 14.8975 2.9383 15.1934 3.30324 15.1934H3.30323Z" fill="white"/>
<path d="M6.60597 15.1934H13.8722C14.2372 15.1934 14.5329 14.8975 14.5329 14.5327C14.5329 14.168 14.2372 13.8721 13.8722 13.8721H6.60597C6.24125 13.8721 5.94531 14.168 5.94531 14.5327C5.94531 14.8975 6.24125 15.1934 6.60597 15.1934Z" fill="white"/>
<path d="M3.30323 18.4969H3.96389H3.96367C4.32861 18.4969 4.62433 18.2012 4.62433 17.8362C4.62433 17.4715 4.32861 17.1758 3.96367 17.1758H3.30324C2.9383 17.1758 2.64258 17.4715 2.64258 17.8362C2.64258 18.2012 2.9383 18.4969 3.30324 18.4969H3.30323Z" fill="white"/>
<path d="M6.60597 18.4969H13.8722C14.2372 18.4969 14.5329 18.2012 14.5329 17.8362C14.5329 17.4715 14.2372 17.1758 13.8722 17.1758H6.60597C6.24125 17.1758 5.94531 17.4715 5.94531 17.8362C5.94531 18.2012 6.24125 18.4969 6.60597 18.4969Z" fill="white"/>
<path d="M3.30323 21.7996H3.96389H3.96367C4.32861 21.7996 4.62433 21.5039 4.62433 21.1392C4.62433 20.7742 4.32861 20.4785 3.96367 20.4785H3.30324C2.9383 20.4785 2.64258 20.7742 2.64258 21.1392C2.64258 21.5039 2.9383 21.7996 3.30324 21.7996H3.30323Z" fill="white"/>
<path d="M6.60597 21.7996H13.8722C14.2372 21.7996 14.5329 21.5039 14.5329 21.1392C14.5329 20.7742 14.2372 20.4785 13.8722 20.4785H6.60597C6.24125 20.4785 5.94531 20.7742 5.94531 21.1392C5.94531 21.5039 6.24125 21.7996 6.60597 21.7996Z" fill="white"/>
</svg>
