<svg width="51" height="36" viewBox="0 0 51 36" fill="none" xmlns="http://www.w3.org/2000/svg">
<path d="M15.5941 4.89676V0.923852C15.5941 0.41358 16.0077 0 16.518 0C17.0287 0 17.4422 0.41358 17.4422 0.923852V4.89676C17.4422 5.40704 17.0287 5.82103 16.518 5.82103C16.0077 5.82103 15.5941 5.40704 15.5941 4.89676ZM9.87523 6.92533L9.87481 6.92491C10.1302 7.36737 10.6957 7.51933 11.1381 7.26399C11.5806 7.00906 11.7326 6.44353 11.4772 6.00109L9.47296 2.53215C9.21468 2.09178 8.64957 1.94151 8.20674 2.19644C7.99409 2.31783 7.83921 2.51959 7.776 2.75653C7.7128 2.99304 7.74712 3.24504 7.87061 3.45642L9.87523 6.92533ZM2.49361 9.55369L5.93243 11.5337C6.37489 11.7891 6.94041 11.6371 7.19533 11.1946C7.45067 10.7522 7.29872 10.1867 6.85626 9.93174L3.41787 7.93339C2.97541 7.67805 2.40988 7.83 2.15454 8.27246C1.89919 8.71492 2.05114 9.28045 2.49361 9.53579V9.55369ZM5.75197 16.5866C5.75364 16.3405 5.65694 16.104 5.48364 15.9294C5.30992 15.7548 5.07425 15.6565 4.82811 15.6565H0.855204C0.37214 15.6954 0 16.0989 0 16.5837C0 17.0684 0.37214 17.4719 0.855204 17.5109H4.82811C5.073 17.5109 5.30825 17.4133 5.48155 17.24C5.65486 17.0667 5.75197 16.8319 5.75197 16.5866V16.5866ZM7.19822 21.9873V21.9878C6.94037 21.547 6.37483 21.3971 5.93243 21.6516L2.49361 23.6379C2.05115 23.8932 1.89919 24.4587 2.15454 24.9012C2.40988 25.3436 2.97542 25.4952 3.41787 25.2403L6.85669 23.254H6.85627C7.07562 23.131 7.23594 22.9242 7.3004 22.681C7.36486 22.4382 7.32803 22.1791 7.19826 21.9635L7.19822 21.9873ZM27.1035 11.5336L30.5423 9.54737H30.5419C30.9877 9.29244 31.1422 8.72398 30.8872 8.27814C30.6319 7.83233 30.0639 7.67787 29.618 7.93321L26.1792 9.91945C25.9653 10.0421 25.8088 10.2447 25.7439 10.4825C25.6794 10.7207 25.7116 10.9747 25.8343 11.1886C26.0896 11.6345 26.6577 11.7889 27.1035 11.5336L27.1035 11.5336ZM21.9007 7.25464V7.25506C22.1121 7.37854 22.3641 7.41288 22.6006 7.34966C22.8375 7.28646 23.0389 7.13157 23.1607 6.91893L25.1469 3.47421C25.4073 3.03343 25.2608 2.46538 24.82 2.20499C24.3792 1.94504 23.8112 2.09113 23.5508 2.53192L21.5645 5.97663C21.4331 6.19012 21.3946 6.44797 21.4578 6.69077C21.5214 6.93314 21.6813 7.13909 21.9007 7.2609L21.9007 7.25464ZM50.1721 29.4585V29.459C50.1767 31.1869 49.4956 32.8462 48.2783 34.0728C47.0611 35.2988 45.4067 35.9921 43.6787 36H11.0994C9.3736 35.9971 7.71924 35.3097 6.49856 34.0895C5.27831 32.8693 4.59141 31.215 4.58808 29.4891L4.97235 27.3166C5.6731 25.3617 7.26508 23.8589 9.25711 23.2721C7.83432 21.5412 7.06158 19.3673 7.0724 17.127C7.07575 14.5488 8.10091 12.0774 9.92311 10.254C11.7457 8.43052 14.2162 7.40369 16.7944 7.39909C18.9653 7.41834 21.0662 8.17266 22.7532 9.53942C24.4405 10.9062 25.6143 12.8045 26.084 14.9243C27.9116 13.1142 30.3842 12.1063 32.9566 12.1222C35.5289 12.1386 37.9885 13.1779 39.7931 15.0106C41.5977 16.8436 42.5986 19.3196 42.5747 21.8915C42.5726 22.293 42.5467 22.6936 42.4969 23.0921C42.8862 23.0163 43.2822 22.9782 43.679 22.9778C45.4024 22.9841 47.0529 23.6727 48.2698 24.8929C49.4866 26.1131 50.1706 27.7658 50.1723 29.4891L50.1721 29.4585ZM11.9518 23.0497C12.0539 23.0497 12.1498 23.0497 12.2519 23.0799H12.2515C12.4671 21.4566 13.1997 19.9458 14.3412 18.7721C15.4827 17.5979 16.9721 16.8235 18.5887 16.5627H20.791C21.9318 16.7126 23.0221 17.1232 23.9778 17.7628C24.1097 17.4807 24.3257 17.2647 24.4818 16.9947C24.4613 14.3554 23.0904 11.9108 20.8492 10.5169C18.608 9.12292 15.8093 8.97397 13.4329 10.1226C11.0565 11.2708 9.43404 13.5563 9.13345 16.1785C8.8329 18.8006 9.89656 21.3938 11.9519 23.0498L11.9518 23.0497ZM47.9999 29.4891C47.9982 28.3413 47.5432 27.2408 46.7341 26.427C45.925 25.6133 44.827 25.152 43.6792 25.144C42.9269 25.1536 42.1898 25.3604 41.5426 25.7443C41.1478 25.967 40.6568 25.9239 40.3065 25.6363C39.9578 25.3437 39.8284 24.8644 39.9825 24.4362C40.6832 22.4952 40.5635 20.3524 39.6509 18.5017C38.7384 16.6507 37.1117 15.2512 35.1451 14.625C33.1789 13.9988 31.0424 14.2001 29.2277 15.183C27.4131 16.1654 26.0765 17.8444 25.5261 19.8333C25.416 20.197 25.1242 20.4775 24.7558 20.5717C24.3879 20.6663 23.9969 20.5616 23.7257 20.2954C22.7244 19.2397 21.3396 18.6322 19.8846 18.6113C18.4299 18.5904 17.0281 19.1572 15.9966 20.1836C14.9656 21.21 14.3917 22.609 14.4059 24.0641C14.3996 24.1741 14.3996 24.2842 14.4059 24.3939C14.4323 24.7832 14.2581 25.1591 13.9438 25.3902C13.6416 25.6212 13.2393 25.6736 12.8876 25.5283C12.3347 25.2797 11.7357 25.1507 11.1296 25.1503C9.61675 25.2064 8.24208 26.0461 7.50159 27.3664C6.76109 28.6867 6.76109 30.2975 7.50159 31.6178C8.2421 32.938 9.61675 33.7777 11.1296 33.8339H43.6788C44.8271 33.8276 45.9259 33.3671 46.7354 32.553C47.545 31.7388 47.9996 30.6374 47.9996 29.4892L47.9999 29.4891Z" fill="white"/>
</svg>
