<svg width="20" height="23" viewBox="0 0 20 23" fill="none" xmlns="http://www.w3.org/2000/svg">
<path d="M17.0079 19.1626V2.84739C17.0079 1.30824 15.6996 0 14.1605 0H2.84739C1.30824 0 0 1.23137 0 2.84739V19.1626C0 20.7018 1.3083 22.01 2.84739 22.01H14.1605C15.6999 22.0102 17.0081 20.7019 17.0081 19.1626H17.0079ZM13.3909 20.8557H2.84755C1.92411 20.8557 1.15444 20.086 1.15444 19.1626V2.84739C1.15444 1.84687 1.92411 1.0774 2.84755 1.0774H14.1607C15.0841 1.0774 15.8538 1.84708 15.8538 2.77051V19.0857C15.8538 20.0092 15.0841 20.7788 14.1607 20.7788H13.391L13.3909 20.8557ZM18.8548 10.3124L12.0824 17.0849L9.6967 14.6992C9.46584 14.4683 9.00412 14.4683 8.77327 14.6992C8.54241 14.93 8.54241 15.3917 8.77327 15.6226L11.6207 18.47C11.7746 18.624 11.9284 18.624 12.0824 18.624C12.2364 18.624 12.3901 18.5471 12.5441 18.47L19.7784 11.2356C20.0093 11.0048 20.0093 10.543 19.7784 10.3122C19.5476 10.0813 19.0859 10.0813 18.855 10.3122L18.8548 10.3124Z" fill="white"/>
<path d="M3.38604 4.84845H13.468C13.6988 4.84845 13.9297 4.69448 13.9297 4.38673C13.9297 4.15587 13.7757 3.92501 13.468 3.92501L3.38604 3.9248C3.07809 4.00189 2.92432 4.15567 2.92432 4.38653C2.92432 4.69448 3.07808 4.84845 3.38604 4.84845V4.84845Z" fill="white"/>
<path d="M3.38604 9.00352H13.468C13.6988 9.00352 13.9297 8.84954 13.9297 8.5418C13.9297 8.23406 13.7757 8.08008 13.468 8.08008H3.38604C3.15518 8.08008 2.92432 8.23406 2.92432 8.5418C2.92432 8.84975 3.07808 9.00352 3.38604 9.00352Z" fill="white"/>
<path d="M3.38604 13.0828H13.468C13.6988 13.0828 13.9297 12.9289 13.9297 12.6211C13.9297 12.3902 13.7757 12.1594 13.468 12.1594L3.38604 12.1592C3.15518 12.1592 2.92432 12.3132 2.92432 12.6209C2.92432 12.9289 3.07808 13.0828 3.38604 13.0828Z" fill="white"/>
<path d="M3.38604 17.1619H7.84966C8.08052 17.1619 8.31138 17.008 8.31138 16.7002C8.31138 16.4693 8.1574 16.2385 7.84966 16.2385L3.38604 16.2383C3.15518 16.2383 2.92432 16.3923 2.92432 16.7C2.92432 17.008 3.07808 17.1619 3.38604 17.1619Z" fill="white"/>
</svg>
