<svg width="16" height="14" viewBox="0 0 16 14" fill="none" xmlns="http://www.w3.org/2000/svg">
<g opacity="0.94">
<path d="M5.19217 1.41211H3.77201C3.63772 1.41211 3.52881 1.52102 3.52881 1.65531V3.22866C3.52881 3.36295 3.63772 3.47186 3.77201 3.47186H5.19217C5.32645 3.47186 5.43537 3.36295 5.43537 3.22866V1.65531C5.43537 1.52102 5.32645 1.41211 5.19217 1.41211Z" fill="white"/>
<path d="M5.19217 4.44141H3.77201C3.63772 4.44141 3.52881 4.55032 3.52881 4.68461V6.25796C3.52881 6.39224 3.63772 6.50116 3.77201 6.50116H5.19217C5.32645 6.50116 5.43537 6.39224 5.43537 6.25796V4.68461C5.43537 4.55032 5.32645 4.44141 5.19217 4.44141Z" fill="white"/>
<path d="M5.19217 7.46973H3.77201C3.63772 7.46973 3.52881 7.57864 3.52881 7.71293V9.28628C3.52881 9.42056 3.63772 9.52948 3.77201 9.52948H5.19217C5.32645 9.52948 5.43537 9.42056 5.43537 9.28628V7.71293C5.43537 7.57864 5.32645 7.46973 5.19217 7.46973Z" fill="white"/>
<path d="M5.19217 10.499H3.77201C3.63772 10.499 3.52881 10.6079 3.52881 10.7422V12.3156C3.52881 12.4499 3.63772 12.5588 3.77201 12.5588H5.19217C5.32645 12.5588 5.43537 12.4499 5.43537 12.3156V10.7422C5.43537 10.6078 5.32645 10.499 5.19217 10.499Z" fill="white"/>
<path d="M7.66064 2.67968H10.0258C10.1571 2.67968 10.2636 2.57331 10.2636 2.44189C10.2636 2.31047 10.1571 2.2041 10.0258 2.2041H7.66064C7.52933 2.2041 7.42285 2.31047 7.42285 2.44189C7.42285 2.57331 7.52933 2.67968 7.66064 2.67968Z" fill="white"/>
<path d="M6.2915 2.67968H6.73852C6.86983 2.67968 6.9763 2.57331 6.9763 2.44189C6.9763 2.31047 6.86983 2.2041 6.73852 2.2041H6.2915C6.16019 2.2041 6.05371 2.31047 6.05371 2.44189C6.05371 2.57331 6.16019 2.67968 6.2915 2.67968Z" fill="white"/>
<path d="M6.2915 5.70898H10.0266C10.1579 5.70898 10.2643 5.60261 10.2643 5.47119C10.2643 5.33977 10.1579 5.2334 10.0266 5.2334H6.2915C6.16019 5.2334 6.05371 5.33977 6.05371 5.47119C6.05371 5.60261 6.16019 5.70898 6.2915 5.70898Z" fill="white"/>
<path d="M15.0284 5.34791L14.3388 4.65832C14.0868 4.40387 13.6753 4.40387 13.421 4.65832C12.4119 5.66734 12.8918 5.18752 11.6209 6.4584L11.6208 1.17704C11.6208 0.527891 11.0929 0 10.4437 0H1.19606C1.19372 0 1.19128 0.00233543 1.18894 0.00233543C0.532701 0.00467084 0 0.539684 0 1.19606V3.79753C0 3.92831 0.107005 4.03532 0.237789 4.03532H2.152V13.7322C2.152 13.863 2.25901 13.97 2.38979 13.97H11.3831C11.5139 13.97 11.6209 13.863 11.6209 13.7322L11.6208 9.67078C11.9692 9.32238 10.3586 10.933 15.0284 6.26319C15.2805 6.01108 15.2805 5.59972 15.0285 5.34769L15.0284 5.34791ZM11.1452 13.4944H2.62773V1.30768C2.62773 1.28623 2.62062 1.26245 2.61351 1.24112C2.57306 0.94865 2.44706 0.684636 2.25682 0.475409H10.4438C10.8314 0.475409 11.1453 0.789318 11.1453 1.17687V6.93381L9.8174 8.2617H6.29024C6.15893 8.2617 6.05245 8.36807 6.05245 8.49949C6.05245 8.63091 6.15893 8.73728 6.29024 8.73728H9.34182L8.66041 9.41869C8.63175 9.44257 8.59619 9.50308 8.59619 9.51858L7.9875 11.2901L7.9874 11.2905H6.29029C6.15898 11.2905 6.0525 11.3969 6.0525 11.5283C6.0525 11.6598 6.15898 11.7661 6.29029 11.7661C6.48148 11.766 5.59752 11.7662 8.16053 11.7656C8.19142 11.7653 8.19737 11.7635 8.24917 11.7478C8.70108 11.593 10.2651 11.0572 10.1679 11.0905C10.1703 11.0905 10.1703 11.0905 10.1727 11.0882C10.21 11.0789 10.2474 11.0486 10.2726 11.0192L11.1453 10.1465L11.1452 13.4944ZM10.0918 10.5293L9.15731 9.59477C13.8245 4.92758 10.3019 8.4502 12.8122 5.93988L13.7467 6.87438C12.488 8.13306 11.4479 9.1733 10.0918 10.5293Z" fill="white"/>
</g>
</svg>
