<svg width="58" height="58" viewBox="0 0 58 58" fill="none" xmlns="http://www.w3.org/2000/svg">
<g filter="url(#filter0_d_356_6542)">
<path d="M35.8724 25.036L26.7733 34.135L22.0923 29.454C21.3035 28.6652 20.041 28.6652 19.2522 29.454C18.4634 30.2428 18.4634 31.5052 19.2522 32.294L25.3535 38.3952C25.7219 38.7636 26.2476 38.9738 26.7737 38.9738C27.2998 38.9738 27.8255 38.7636 28.1939 38.3952L38.7132 27.876C39.5019 27.0872 39.5019 25.8247 38.7132 25.036C37.9236 24.2468 36.6615 24.2468 35.8724 25.036Z" fill="white"/>
<path d="M48.9699 3.89222H41.5012V1.99875C41.5012 0.894043 40.6071 0 39.5025 0C38.3978 0 37.5037 0.89409 37.5037 1.99875V3.89222H20.5151V1.99875C20.5151 0.894043 19.621 0 18.5164 0C17.4117 0 16.5176 0.89409 16.5176 1.99875V3.89222H8.99655C6.20895 3.89222 4 6.15367 4 8.88877V44.0231C4 46.8107 6.26145 49.0196 8.99655 49.0196L48.9697 49.02C51.7573 49.02 53.9663 46.7585 53.9663 44.0234V8.88914C53.9663 6.15404 51.7048 3.89259 48.9697 3.89259L48.9699 3.89222ZM8.99674 7.88944H16.4654V9.78291C16.4654 10.8876 17.3595 11.7817 18.4642 11.7817C19.5688 11.7817 20.4629 10.8876 20.4629 9.78291V7.88944H37.3989V9.78291C37.3989 10.8876 38.293 11.7817 39.3977 11.7817C40.5024 11.7817 41.3964 10.8876 41.3964 9.78291V7.88944H48.97C49.4961 7.88944 49.9694 8.36272 49.9694 8.88886V14.4116H7.9976V8.88886C7.9976 8.36275 8.47125 7.88944 8.99702 7.88944H8.99674ZM48.9699 45.0224H8.99674C8.47062 45.0224 7.99732 44.5491 7.99732 44.023V18.4086H49.9165V44.023C49.9694 44.5491 49.4957 45.0224 48.97 45.0224H48.9699Z" fill="white"/>
</g>
<defs>
<filter id="filter0_d_356_6542" x="0" y="0" width="57.9663" height="57.02" filterUnits="userSpaceOnUse" color-interpolation-filters="sRGB">
<feFlood flood-opacity="0" result="BackgroundImageFix"/>
<feColorMatrix in="SourceAlpha" type="matrix" values="0 0 0 0 0 0 0 0 0 0 0 0 0 0 0 0 0 0 127 0" result="hardAlpha"/>
<feOffset dy="4"/>
<feGaussianBlur stdDeviation="2"/>
<feComposite in2="hardAlpha" operator="out"/>
<feColorMatrix type="matrix" values="0 0 0 0 0 0 0 0 0 0 0 0 0 0 0 0 0 0 0.25 0"/>
<feBlend mode="normal" in2="BackgroundImageFix" result="effect1_dropShadow_356_6542"/>
<feBlend mode="normal" in="SourceGraphic" in2="effect1_dropShadow_356_6542" result="shape"/>
</filter>
</defs>
</svg>
