<svg width="25" height="24" viewBox="0 0 25 24" fill="none" xmlns="http://www.w3.org/2000/svg">
<path d="M22.8609 4.74904H9.1184L15.4575 0.674657L15.0235 0L8.441 4.2305L5.47763 1.63973L4.94978 2.24366L7.81544 4.74904H1.20317C0.884108 4.74904 0.57792 4.87581 0.352363 5.10141C0.126805 5.32701 0 5.63319 0 5.95221V21.1926C0 21.5117 0.126763 21.8179 0.352363 22.0434C0.577962 22.269 0.884149 22.3958 1.20317 22.3958H2.00529V22.7968C2.00529 23.1159 2.13206 23.4221 2.35766 23.6476C2.58325 23.8732 2.88944 24 3.20846 24H4.01059C4.32964 24 4.63583 23.8732 4.86139 23.6476C5.08695 23.422 5.21375 23.1159 5.21375 22.7968V22.3958H18.8499V22.7968C18.8499 23.1159 18.9767 23.4221 19.2023 23.6476C19.4279 23.8732 19.734 24 20.0531 24H20.8552C21.1742 24 21.4804 23.8732 21.706 23.6476C21.9316 23.422 22.0584 23.1159 22.0584 22.7968V22.3958H22.8605C23.1795 22.3958 23.4857 22.269 23.7113 22.0434C23.9368 21.8178 24.0636 21.5116 24.0636 21.1926V5.95221C24.0636 5.63315 23.9369 5.32696 23.7113 5.10141C23.4857 4.87585 23.1795 4.74904 22.8605 4.74904H22.8609ZM4.41198 22.7969C4.41198 22.9032 4.36973 23.0053 4.29453 23.0805C4.21933 23.1557 4.11727 23.1979 4.01092 23.1979H3.20879C2.98732 23.1979 2.80773 23.0184 2.80773 22.7969V22.3958H4.41198V22.7969ZM21.2566 22.7969C21.2566 22.9032 21.2144 23.0053 21.1392 23.0805C21.064 23.1557 20.9619 23.1979 20.8556 23.1979H20.0534C19.832 23.1979 19.6524 23.0184 19.6524 22.7969V22.3958H21.2566V22.7969ZM23.2619 21.1926C23.2619 21.299 23.2197 21.401 23.1445 21.4762C23.0693 21.5514 22.9672 21.5937 22.8609 21.5937H1.20348C0.982 21.5937 0.802415 21.4141 0.802415 21.1926V5.95223C0.802415 5.73076 0.982 5.55117 1.20348 5.55117H22.8609C22.9672 5.55117 23.0693 5.59343 23.1445 5.66862C23.2197 5.74382 23.2619 5.84588 23.2619 5.95223V21.1926Z" fill="white"/>
<path d="M3.60981 6.35352C3.0782 6.35423 2.56846 6.56569 2.19247 6.9415C1.81666 7.31749 1.60523 7.82723 1.60449 8.35883V18.7865C1.60521 19.3181 1.81666 19.8278 2.19247 20.2038C2.56847 20.5796 3.0782 20.7911 3.60981 20.7918H17.2459C17.7776 20.7911 18.2873 20.5796 18.6633 20.2038C19.0391 19.8278 19.2505 19.3181 19.2513 18.7865V8.35883C19.2505 7.82723 19.0391 7.31749 18.6633 6.9415C18.2873 6.56568 17.7776 6.35425 17.2459 6.35352H3.60981ZM18.4491 8.35883V18.7865C18.4491 19.1055 18.3224 19.4117 18.0968 19.6373C17.8712 19.8628 17.565 19.9896 17.246 19.9896H3.60983C3.29077 19.9896 2.98458 19.8629 2.75903 19.6373C2.53347 19.4117 2.40666 19.1055 2.40666 18.7865V8.35883C2.40666 8.03977 2.53343 7.73359 2.75903 7.50803C2.98463 7.28247 3.29081 7.15566 3.60983 7.15566H17.246C17.565 7.15566 17.8712 7.28243 18.0968 7.50803C18.3223 7.73363 18.4491 8.03981 18.4491 8.35883Z" fill="white"/>
<path d="M14.0381 7.95801V8.76013H16.4445C16.5508 8.76013 16.6529 8.80239 16.7281 8.87759C16.8033 8.95279 16.8455 9.05484 16.8455 9.1612V11.5676H17.6477V9.1612C17.6477 8.84214 17.5209 8.53595 17.2953 8.31039C17.0697 8.08484 16.7635 7.95803 16.4445 7.95803L14.0381 7.95801Z" fill="white"/>
<path d="M20.8555 12.7705H21.6576V13.5726H20.8555V12.7705Z" fill="white"/>
<path d="M20.8555 15.1768H21.6576V15.9789H20.8555V15.1768Z" fill="white"/>
<path d="M20.8555 17.583H21.6576V18.3851H20.8555V17.583Z" fill="white"/>
<path d="M22.46 10.7647C22.46 10.4456 22.3333 10.1394 22.1077 9.91389C21.8821 9.68833 21.5759 9.56152 21.2569 9.56152C20.9379 9.56152 20.6316 9.68829 20.4061 9.91389C20.1805 10.1395 20.0537 10.4457 20.0537 10.7647C20.0537 11.0837 20.1805 11.3899 20.4061 11.6155C20.6317 11.8411 20.9379 11.9679 21.2569 11.9679C21.5759 11.9679 21.8821 11.8411 22.1077 11.6155C22.3332 11.3899 22.46 11.0837 22.46 10.7647ZM21.2569 11.1658C21.0946 11.1658 20.9484 11.068 20.8864 10.9181C20.8243 10.7683 20.8585 10.5959 20.9732 10.4811C21.088 10.3663 21.2604 10.3321 21.4103 10.3942C21.5602 10.4562 21.6579 10.6025 21.6579 10.7647C21.6579 10.871 21.6157 10.9731 21.5405 11.0483C21.4653 11.1235 21.3632 11.1658 21.2569 11.1658Z" fill="white"/>
</svg>
