<svg width="32" height="32" viewBox="0 0 32 32" fill="none" xmlns="http://www.w3.org/2000/svg">
<g opacity="0.4">
<path d="M15.827 0C7.10015 0 0 7.10015 0 15.827C0 24.5538 7.10015 31.6539 15.827 31.6539C24.5538 31.6539 31.6539 24.5538 31.6539 15.827C31.6539 7.10015 24.5538 0 15.827 0ZM15.827 29.8954C8.06986 29.8954 1.75855 23.584 1.75855 15.827C1.75855 8.06986 8.06986 1.75855 15.827 1.75855C23.584 1.75855 29.8954 8.06986 29.8954 15.827C29.8954 23.584 23.584 29.8954 15.827 29.8954Z" fill="white"/>
<path d="M24.0717 12.8718C24.0717 13.9758 23.1769 14.8705 22.0729 14.8705C20.9692 14.8705 20.0742 13.9758 20.0742 12.8718C20.0742 11.768 20.9692 10.873 22.0729 10.873C23.1769 10.873 24.0717 11.768 24.0717 12.8718Z" fill="white"/>
<path d="M11.5795 12.8718C11.5795 13.9758 10.6845 14.8705 9.58075 14.8705C8.47676 14.8705 7.58203 13.9758 7.58203 12.8718C7.58203 11.768 8.47676 10.873 9.58075 10.873C10.6845 10.873 11.5795 11.768 11.5795 12.8718Z" fill="white"/>
<path d="M21.4857 18.9945C18.3116 21.8239 13.3386 21.8239 10.1638 18.9945C9.80143 18.6714 9.2455 18.703 8.92212 19.0659C8.59902 19.4285 8.63091 19.9841 8.99351 20.3075C10.9088 22.0143 13.3668 22.8683 15.8249 22.8683C18.2829 22.8683 20.7406 22.0148 22.6556 20.3075C23.0182 19.9844 23.0501 19.4285 22.727 19.0659C22.4039 18.703 21.8477 18.6714 21.4855 18.9945H21.4857Z" fill="white"/>
</g>
</svg>
