<svg width="32" height="32" viewBox="0 0 32 32" fill="none" xmlns="http://www.w3.org/2000/svg">
<g opacity="0.4">
<path d="M15.827 0C7.10015 0 0 7.10015 0 15.8269C0 24.5538 7.10015 31.6539 15.827 31.6539C24.5538 31.6539 31.6539 24.5538 31.6539 15.8269C31.6539 7.10015 24.5538 0 15.827 0ZM15.827 29.8953C8.06986 29.8953 1.75855 23.584 1.75855 15.8269C1.75855 8.06986 8.06986 1.75855 15.827 1.75855C23.584 1.75855 29.8954 8.06986 29.8954 15.8269C29.8954 23.584 23.584 29.8953 15.827 29.8953Z" fill="white"/>
<path d="M24.0717 12.8718C24.0717 13.9758 23.1769 14.8705 22.0729 14.8705C20.9692 14.8705 20.0742 13.9758 20.0742 12.8718C20.0742 11.768 20.9692 10.873 22.0729 10.873C23.1769 10.873 24.0717 11.768 24.0717 12.8718Z" fill="white"/>
<path d="M11.5795 12.8718C11.5795 13.9758 10.6845 14.8705 9.58075 14.8705C8.47676 14.8705 7.58203 13.9758 7.58203 12.8718C7.58203 11.768 8.47676 10.873 9.58075 10.873C10.6845 10.873 11.5795 11.768 11.5795 12.8718Z" fill="white"/>
<path d="M8.99742 21.3421C8.63482 21.6652 8.60292 22.2211 8.92603 22.5838C9.24913 22.9466 9.80505 22.9783 10.1677 22.6552C13.3418 19.8257 18.3148 19.8257 21.4896 22.6552C21.6574 22.8046 21.8662 22.8782 22.0745 22.8782C22.3164 22.8782 22.5578 22.7791 22.7312 22.5843C23.0543 22.2217 23.0224 21.666 22.6598 21.3426C18.8292 17.9276 12.8277 17.9276 8.9978 21.3421H8.99742Z" fill="white"/>
</g>
</svg>
