<svg width="32" height="32" viewBox="0 0 32 32" fill="none" xmlns="http://www.w3.org/2000/svg">
<g opacity="0.4">
<path d="M15.827 0C7.10015 0 0 7.10015 0 15.827C0 24.5538 7.10015 31.6539 15.827 31.6539C24.5538 31.6539 31.6539 24.5538 31.6539 15.827C31.6539 7.10015 24.5538 0 15.827 0ZM15.827 29.8954C8.06986 29.8954 1.75855 23.584 1.75855 15.827C1.75855 8.06986 8.06986 1.75855 15.827 1.75855C23.584 1.75855 29.8954 8.06986 29.8954 15.827C29.8954 23.584 23.584 29.8954 15.827 29.8954Z" fill="white"/>
<path d="M24.0717 12.8718C24.0717 13.9758 23.1769 14.8705 22.0729 14.8705C20.9692 14.8705 20.0742 13.9758 20.0742 12.8718C20.0742 11.768 20.9692 10.873 22.0729 10.873C23.1769 10.873 24.0717 11.768 24.0717 12.8718Z" fill="white"/>
<path d="M11.5795 12.8718C11.5795 13.9758 10.6845 14.8705 9.58075 14.8705C8.47676 14.8705 7.58203 13.9758 7.58203 12.8718C7.58203 11.768 8.47676 10.873 9.58075 10.873C10.6845 10.873 11.5795 11.768 11.5795 12.8718Z" fill="white"/>
<path d="M15.8274 24.3842C19.436 24.3842 22.9784 21.4591 22.9784 17.8506L8.67578 17.8508C8.67578 21.4592 12.2184 24.3845 15.8268 24.3845L15.8274 24.3842Z" fill="white"/>
</g>
</svg>
