<svg width="32" height="32" viewBox="0 0 32 32" fill="none" xmlns="http://www.w3.org/2000/svg">
<g opacity="0.4">
<path d="M15.827 0C7.10015 0 0 7.10015 0 15.827C0 24.5538 7.10015 31.6539 15.827 31.6539C24.5538 31.6539 31.6539 24.5538 31.6539 15.827C31.6539 7.10015 24.5538 0 15.827 0ZM15.827 29.8954C8.06986 29.8954 1.75855 23.584 1.75855 15.827C1.75855 8.06986 8.06986 1.75855 15.827 1.75855C23.584 1.75855 29.8954 8.06986 29.8954 15.827C29.8954 23.584 23.584 29.8954 15.827 29.8954Z" fill="white"/>
<path d="M22.6654 15.3397C22.6654 16.5733 21.7704 17.5732 20.6667 17.5732C19.5627 17.5732 18.668 16.5732 18.668 15.3397C18.668 14.1064 19.5627 13.1064 20.6667 13.1064C21.7704 13.1064 22.6654 14.1064 22.6654 15.3397Z" fill="white"/>
<path d="M13.3373 15.3397C13.3373 16.5733 12.4423 17.5732 11.3386 17.5732C10.2346 17.5732 9.33984 16.5732 9.33984 15.3397C9.33984 14.1064 10.2346 13.1064 11.3386 13.1064C12.4423 13.1064 13.3373 14.1064 13.3373 15.3397Z" fill="white"/>
<path d="M21.9886 8.82427C20.2423 9.22392 18.7585 10.4442 18.0189 12.0889C17.8199 12.5317 18.0174 13.0523 18.4602 13.2515C18.5773 13.304 18.6997 13.3288 18.8204 13.3288C19.156 13.3288 19.4764 13.1357 19.6228 12.8099C20.1378 11.6652 21.1689 10.8156 22.3809 10.5387C22.8544 10.4302 23.1505 9.95893 23.0418 9.48522C22.9333 9.01172 22.4606 8.71535 21.9885 8.82432L21.9886 8.82427Z" fill="white"/>
<path d="M12.3791 12.8096C12.5258 13.1354 12.8462 13.3285 13.1815 13.3285C13.3022 13.3285 13.4247 13.3034 13.5417 13.2512C13.9845 13.0522 14.1822 12.5316 13.983 12.0885C13.2434 10.4438 11.7596 9.22353 10.0133 8.8239C9.5403 8.7162 9.06852 9.01182 8.95987 9.4848C8.85143 9.95829 9.14779 10.4298 9.62077 10.5382C10.8332 10.8152 11.8641 11.6646 12.3791 12.8095L12.3791 12.8096Z" fill="white"/>
<path d="M15.8286 18.6533C13.827 18.6533 12.0039 20.665 12.0039 22.8738C12.0039 23.3595 12.3974 23.7531 12.8832 23.7531C13.3689 23.7531 13.7625 23.3595 13.7625 22.8738C13.7625 21.5102 14.893 20.4119 15.8286 20.4119C16.7646 20.4119 17.8948 21.5102 17.8948 22.8738C17.8948 23.3595 18.2883 23.7531 18.7741 23.7531C19.2598 23.7531 19.6533 23.3595 19.6533 22.8738C19.6533 20.6645 17.8303 18.6533 15.8286 18.6533Z" fill="white"/>
</g>
</svg>
