<svg width="32" height="32" viewBox="0 0 32 32" fill="none" xmlns="http://www.w3.org/2000/svg">
<g opacity="0.4">
<path d="M15.825 0C7.09927 0 0 7.09927 0 15.825C0 24.5507 7.09927 31.65 15.825 31.65C24.5507 31.65 31.65 24.5507 31.65 15.825C31.65 7.09927 24.5507 0 15.825 0ZM15.825 29.8917C8.06887 29.8917 1.75833 23.5811 1.75833 15.825C1.75833 8.06886 8.06887 1.75833 15.825 1.75833C23.5811 1.75833 29.8917 8.06886 29.8917 15.825C29.8917 23.5811 23.5811 29.8917 15.825 29.8917Z" fill="white"/>
<path d="M24.0673 12.8705C24.0673 13.9744 23.1726 14.869 22.0688 14.869C20.9652 14.869 20.0703 13.9744 20.0703 12.8705C20.0703 11.7669 20.9652 10.8721 22.0688 10.8721C23.1726 10.8721 24.0673 11.7669 24.0673 12.8705Z" fill="white"/>
<path d="M11.579 12.8705C11.579 13.9744 10.6841 14.869 9.5805 14.869C8.47665 14.869 7.58203 13.9744 7.58203 12.8705C7.58203 11.7669 8.47665 10.8721 9.5805 10.8721C10.6841 10.8721 11.579 11.7669 11.579 12.8705Z" fill="white"/>
<path d="M21.1423 18.4616L10.1841 20.4898C9.70699 20.5781 9.39154 21.0365 9.47958 21.5141C9.55808 21.9375 9.92726 22.2333 10.3428 22.2333C10.3958 22.2333 10.4497 22.2284 10.504 22.2186L21.4621 20.1904C21.9393 20.1021 22.2547 19.6437 22.1667 19.1661C22.0784 18.6885 21.6192 18.3716 21.1423 18.4616L21.1423 18.4616Z" fill="white"/>
</g>
</svg>
