<svg width="46" height="46" viewBox="0 0 46 46" fill="none" xmlns="http://www.w3.org/2000/svg">
<path d="M41.2407 15.1115C42.0913 15.1115 42.819 15.0882 43.5448 15.1167C44.8356 15.1674 45.8034 16.0718 45.8068 17.3543C45.8276 25.4631 45.8173 33.5719 45.8173 41.7561C45.3292 41.7561 44.8738 41.7561 44.2904 41.7561C44.2904 41.412 44.2904 41.0426 44.2904 40.6731C44.2904 33.1347 44.291 25.5963 44.2898 18.0581C44.2896 16.743 44.1879 16.6413 42.8751 16.6411C41.1577 16.6409 39.4403 16.6467 37.7227 16.6528C37.6637 16.653 37.6047 16.6848 37.4852 16.7196C37.4852 17.1566 37.4852 17.6108 37.4852 18.1633C38.8979 18.1633 40.2891 18.1749 41.6798 18.1583C42.3718 18.1501 42.7703 18.3992 42.7688 19.1463C42.7594 23.5673 42.7573 27.9884 42.7493 32.4093C42.7491 32.4656 42.7054 32.5217 42.6629 32.6238C42.2457 32.6238 41.8113 32.6238 41.2731 32.6238C41.2731 28.3623 41.2731 24.0873 41.2731 19.7536C39.9492 19.7536 38.7276 19.7536 37.5085 19.7536C37.3028 21.2199 37.3028 21.2203 35.7743 21.2205C33.7704 21.2208 31.7666 21.2214 29.7627 21.2203C28.3768 21.2195 28.3319 21.1771 28.2123 19.7467C26.9933 19.7467 25.7696 19.7467 24.4959 19.7467C24.4959 26.8294 24.4959 33.8775 24.4959 41.0317C27.7476 41.0317 31.0034 41.0317 34.314 41.0317C34.314 41.5916 34.314 42.0466 34.314 42.5951C33.4002 42.5951 32.5174 42.5951 31.6343 42.5951C29.1215 42.5951 26.6086 42.5768 24.0961 42.605C23.2381 42.6146 22.9043 42.2781 22.9064 41.418C22.9232 34.0704 22.9253 26.7229 22.9045 19.3756C22.9018 18.4593 23.2618 18.124 24.1557 18.1522C25.4847 18.1942 26.8159 18.1631 28.2023 18.1631C28.2023 17.6387 28.2023 17.1845 28.2023 16.6461C26.1718 16.6461 24.1746 16.6161 22.1808 16.6816C21.9119 16.6904 21.6449 17.1675 21.4077 17.4532C21.3445 17.5293 21.3934 17.6999 21.3934 17.827C21.3932 26.1923 21.4016 34.5577 21.3814 42.923C21.3791 43.8552 21.7728 44.132 22.6495 44.1289C28.7247 44.1079 34.7999 44.1178 40.875 44.1178C41.218 44.1178 41.5607 44.1178 41.9533 44.1178C41.9533 44.6329 41.9533 45.0667 41.9533 45.6484C41.6392 45.6484 41.305 45.6484 40.971 45.6484C35.023 45.6484 29.0751 45.6484 23.127 45.6484C15.8906 45.6484 8.65429 45.6492 1.41802 45.6477C0.120269 45.6475 0.0153036 45.5394 0.0149219 44.2177C0.013586 38.5244 0.0259903 32.8309 3.54006e-05 27.1376C-0.00320896 26.4124 0.216073 25.9551 0.854449 25.6024C1.827 25.065 2.73714 24.4146 3.7114 23.8804C4.36504 23.522 4.62383 23.0942 4.6162 22.3138C4.57211 17.8293 4.61429 13.3441 4.57726 8.85961C4.57039 8.03287 4.84693 7.60881 5.60477 7.28361C11.1202 4.91733 16.6121 2.49646 22.1327 0.142575C22.5879 -0.0515146 23.2705 -0.045599 23.7272 0.149063C29.248 2.50333 34.742 4.92 40.255 7.2924C40.9624 7.59679 41.28 7.9842 41.2588 8.79052C41.2044 10.8528 41.2407 12.917 41.2407 15.1115ZM19.8401 18.1667C17.9141 18.1667 16.0762 18.1404 14.2397 18.178C13.3544 18.1961 12.9687 17.8866 12.9798 16.9629C13.0132 14.1975 13.0086 11.4314 12.9819 8.66591C12.9737 7.81722 13.2882 7.4632 14.1569 7.46587C20.0063 7.48477 25.8557 7.48247 31.7051 7.46778C32.5118 7.46568 32.8712 7.77962 32.8506 8.59815C32.8218 9.73578 32.8433 10.8747 32.8433 11.9925C34.5892 12.3565 35.0581 12.791 35.7858 14.213C35.9903 14.613 36.5596 14.9932 37.0116 15.064C37.8694 15.1985 38.7633 15.1029 39.7099 15.1029C39.7099 13.1571 39.6874 11.3188 39.7233 9.48158C39.7344 8.91744 39.5439 8.65007 39.028 8.42811C33.8968 6.2208 28.7823 3.97436 23.645 1.78117C23.2396 1.60807 22.6343 1.59968 22.2314 1.77163C17.0935 3.96348 11.9794 6.21126 6.84679 8.41609C6.29506 8.65312 6.10632 8.93843 6.1107 9.53921C6.13876 13.5447 6.12483 17.5503 6.12674 21.556C6.12693 21.7674 6.14773 21.9791 6.167 22.3401C7.47639 21.5378 8.70295 20.825 9.88524 20.0452C10.4753 19.6561 10.9444 19.678 11.5347 20.0494C14.0348 21.6226 16.5598 23.156 19.078 24.7003C19.3008 24.837 19.5395 24.9475 19.8401 25.107C19.8401 22.7518 19.8401 20.5307 19.8401 18.1667ZM19.7722 44.0699C19.8128 43.9442 19.8479 43.8864 19.8479 43.8285C19.8544 38.3938 19.8685 32.9591 19.8349 27.5246C19.833 27.2136 19.5096 26.7952 19.2189 26.612C16.6131 24.97 13.9712 23.3854 11.3656 21.743C10.8505 21.4184 10.4984 21.4619 10.0079 21.7703C7.45425 23.3761 4.88739 24.962 2.29896 26.5111C1.74169 26.8445 1.52489 27.1956 1.52871 27.8552C1.55791 32.9721 1.54493 38.0891 1.54493 43.2062C1.54493 43.4821 1.54493 43.7583 1.54493 44.0543C3.11921 44.0543 4.591 44.0543 6.1212 44.0543C6.1212 43.7413 6.1212 43.4915 6.1212 43.2419C6.1212 39.8729 6.13895 36.5037 6.10956 33.1351C6.10173 32.2364 6.43094 31.8774 7.3407 31.8921C9.59668 31.9284 11.854 31.9238 14.1102 31.894C14.9711 31.8826 15.3104 32.2276 15.2955 33.0843C15.2636 34.9271 15.2858 36.7709 15.2858 38.6144C15.2858 40.4176 15.2858 42.2207 15.2858 44.0703C16.8251 44.0699 18.2746 44.0699 19.7722 44.0699ZM13.7128 33.5025C11.6591 33.5025 9.68027 33.5025 7.72678 33.5025C7.72678 37.0747 7.72678 40.5784 7.72678 44.0667C9.75851 44.0667 11.7151 44.0667 13.7128 44.0667C13.7128 40.5347 13.7128 37.0537 13.7128 33.5025ZM14.5686 16.5802C16.0848 16.5802 17.5545 16.5802 19.0359 16.5802C19.0359 14.038 19.0359 11.5522 19.0359 9.07927C17.5017 9.07927 16.0312 9.07927 14.5686 9.07927C14.5686 11.6156 14.5686 14.079 14.5686 16.5802ZM35.8915 19.6425C35.8915 18.6322 35.9264 17.6837 35.8667 16.7409C35.852 16.5085 35.5741 16.2052 35.3407 16.0911C34.7611 15.8077 34.4693 15.4399 34.2666 14.7825C34.1178 14.2996 33.4796 13.8098 32.9567 13.6403C32.3078 13.43 31.6267 13.8479 31.4824 14.5273C31.2971 15.3995 30.8795 15.9352 30.0663 16.2358C29.939 16.2829 29.8081 16.5184 29.8045 16.6698C29.781 17.6452 29.7925 18.6215 29.7925 19.6424C31.8379 19.6425 33.7947 19.6425 35.8915 19.6425ZM20.6733 15.2995C22.2123 15.2041 23.6744 15.1132 25.1359 15.0226C25.1359 13.0139 25.1359 11.033 25.1359 9.0558C23.6158 9.0558 22.1661 9.0558 20.6733 9.0558C20.6733 11.2238 20.6733 13.3431 20.6733 15.2995ZM26.801 9.04473C26.801 11.1055 26.801 13.0813 26.801 15.1094C27.2413 15.1094 27.618 15.0964 27.9936 15.1119C28.9894 15.1531 29.7707 14.9285 30.1127 13.821C30.2423 13.4017 30.6793 13.0813 30.9578 12.7023C31.0969 12.513 31.2879 12.2967 31.2954 12.087C31.3307 11.0856 31.3112 10.0824 31.3112 9.04473C29.7581 9.04473 28.3128 9.04473 26.801 9.04473Z" fill="white"/>
<path d="M45.6388 44.1758C45.1745 44.7138 44.8896 45.0442 44.5289 45.4621C43.0157 43.9388 41.5792 42.5076 40.1631 41.0564C39.8257 40.7106 39.561 40.5547 39.0253 40.7452C36.763 41.5496 34.4824 40.6738 33.3944 38.6594C32.3161 36.663 32.8389 34.2309 34.6437 32.8457C36.4357 31.4705 38.9482 31.6092 40.5814 33.1738C42.2508 34.7727 42.468 37.1596 41.1265 39.1705C41.0567 39.2753 40.982 39.377 40.8818 39.5198C42.4596 41.0639 44.0376 42.6086 45.6388 44.1758ZM37.4495 39.5346C39.1142 39.5169 40.4717 38.1436 40.4702 36.4786C40.4687 34.778 39.0474 33.3946 37.3438 33.4356C35.6817 33.4757 34.3441 34.8719 34.3719 36.5376C34.3998 38.2022 35.7865 39.5524 37.4495 39.5346Z" fill="#86E2FF"/>
<path d="M27.4568 24.7123C27.6295 24.8673 27.9282 25.1352 28.3356 25.5007C29.358 24.3804 30.3544 23.289 31.4006 22.1426C31.8371 22.6334 32.1384 22.9722 32.4823 23.3588C31.2777 24.5758 30.037 25.8755 28.7259 27.1002C28.5473 27.2671 27.9362 27.1799 27.6688 26.9988C27.1537 26.6496 26.7411 26.1492 26.1621 25.5921C26.6041 25.2917 26.985 25.0329 27.4568 24.7123Z" fill="white"/>
<path d="M26.084 30.969C26.5718 30.5405 26.8985 30.2537 27.2808 29.9178C27.5869 30.1839 27.9108 30.4655 28.3486 30.8461C29.3682 29.7279 30.3643 28.6355 31.3996 27.5C31.8397 27.9781 32.1466 28.3113 32.5246 28.7222C31.3196 29.9245 30.0931 31.195 28.7982 32.3914C28.5974 32.5769 27.9938 32.5652 27.7338 32.3988C27.16 32.0318 26.6865 31.5077 26.084 30.969Z" fill="white"/>
<path d="M26.0962 36.2999C26.572 35.8908 26.9014 35.6075 27.2913 35.2722C27.5846 35.527 27.9075 35.8077 28.3413 36.1845C29.3593 35.069 30.3555 33.9773 31.4292 32.8008C31.8204 33.3378 32.0897 33.7075 32.3973 34.13C31.2755 35.2638 30.0324 36.5608 28.727 37.7918C28.5518 37.9568 27.9772 37.9149 27.7365 37.7505C27.1722 37.3648 26.6979 36.8469 26.0962 36.2999Z" fill="white"/>
<path d="M39.6795 23.584C39.6795 24.0519 39.6795 24.4855 39.6795 24.9787C37.6722 24.9787 35.6901 24.9787 33.6553 24.9787C33.6553 24.5268 33.6553 24.0941 33.6553 23.584C35.612 23.584 37.592 23.584 39.6795 23.584Z" fill="white"/>
<path d="M39.6723 28.1514C39.6723 28.6518 39.6723 29.0854 39.6723 29.5672C37.6487 29.5672 35.6668 29.5672 33.644 29.5672C33.644 29.084 33.644 28.6502 33.644 28.1514C35.6313 28.1514 37.6134 28.1514 39.6723 28.1514Z" fill="white"/>
<path d="M10.6976 30.3813C9.52141 30.3811 8.34504 30.3698 7.16886 30.3853C6.45587 30.3946 6.09421 30.0859 6.1217 29.3593C6.12284 29.3276 6.12227 29.2958 6.12131 29.2639C6.0299 26.1911 6.01979 26.1735 8.6689 24.6157C11.1661 23.1471 10.1392 23.3076 12.7757 24.5624C14.8864 25.567 15.6275 26.9501 15.32 29.1841C15.1968 30.0792 14.9195 30.425 14.0351 30.3916C12.9242 30.3496 11.8102 30.3815 10.6976 30.3813ZM13.6206 28.811C14.407 26.6663 12.5976 26.3661 11.4718 25.6373C9.94432 24.6483 9.20193 26.33 8.10973 26.7713C7.1889 27.1432 7.80342 28.0808 7.66678 28.811C9.71015 28.811 11.6644 28.811 13.6206 28.811Z" fill="#86E2FF"/>
</svg>
