<svg width="120" height="120" viewBox="0 0 120 120" fill="none" xmlns="http://www.w3.org/2000/svg">
<path d="M72.9934 40.1975L53.747 63.2815L47.0091 55.2035C45.2949 53.1469 42.6138 52.161 39.9757 52.6163C37.3381 53.0725 35.1435 54.9014 34.2195 57.4142C33.2955 59.9262 33.7818 62.7409 35.4951 64.7975L47.9901 79.7969C49.4122 81.5078 51.5207 82.4979 53.7445 82.4996C55.9693 82.5013 58.0793 81.5136 59.5032 79.8044L84.5071 49.8056H84.508C85.7911 48.2798 86.4139 46.3061 86.2389 44.3197C86.064 42.3335 85.1048 40.4996 83.5746 39.2214C82.0437 37.9442 80.0675 37.3289 78.0821 37.5122C76.0967 37.6947 74.266 38.6606 72.9938 40.1965L72.9934 40.1975Z" fill="#6CC644"/>
<path d="M60.0019 0.00390625C44.0893 0.00390625 28.8289 6.32508 17.5772 17.5772C6.32508 28.8284 0.00390625 44.0897 0.00390625 60.0019C0.00390625 75.9141 6.32508 91.1749 17.5772 102.427C28.8284 113.679 44.0897 120 60.0019 120C75.9141 120 91.1749 113.679 102.427 102.427C113.679 91.1753 120 75.9141 120 60.0019C119.983 44.0944 113.656 28.8439 102.408 17.5965C91.1603 6.34865 75.9107 0.021477 60.0027 0.00476336L60.0019 0.00390625ZM60.0019 105C48.0677 105 36.6221 100.259 28.1839 91.8199C19.745 83.381 15.0042 71.9356 15.0042 60.0019C15.0042 48.0682 19.745 36.6221 28.1839 28.1839C36.6228 19.745 48.0682 15.0042 60.0019 15.0042C71.9356 15.0042 83.3817 19.745 91.8199 28.1839C100.259 36.6228 105 48.0682 105 60.0019C104.986 71.932 100.241 83.3688 91.8057 91.807C83.3694 100.242 71.9315 104.988 60.0006 105.001L60.0019 105Z" fill="#6CC644"/>
</svg>
