<svg width="20" height="20" viewBox="0 0 20 20" fill="none" xmlns="http://www.w3.org/2000/svg">
<path d="M10 0C4.48611 0 0 4.48611 0 10C0 15.5139 4.48611 20 10 20C15.5139 20 20 15.5139 20 10C20 4.48611 15.5139 0 10 0ZM10 18.8889C5.09881 18.8889 1.11111 14.9012 1.11111 10C1.11111 5.09881 5.09881 1.11111 10 1.11111C14.9012 1.11111 18.8889 5.09881 18.8889 10C18.8889 14.9012 14.9012 18.8889 10 18.8889Z" fill="#FD5134"/>
<path d="M14.3206 9.69232C14.3206 10.4717 13.7552 11.1035 13.0578 11.1035C12.3602 11.1035 11.7949 10.4717 11.7949 9.69232C11.7949 8.91308 12.3602 8.28125 13.0578 8.28125C13.7552 8.28125 14.3206 8.91308 14.3206 9.69232Z" fill="#FD5134"/>
<path d="M8.42806 9.69232C8.42806 10.4717 7.86258 11.1035 7.1652 11.1035C6.46766 11.1035 5.90234 10.4717 5.90234 9.69232C5.90234 8.91308 6.46766 8.28125 7.1652 8.28125C7.86258 8.28125 8.42806 8.91308 8.42806 9.69232Z" fill="#FD5134"/>
<path d="M13.8931 5.57575C12.7897 5.82826 11.8522 6.59928 11.3849 7.63844C11.2592 7.91824 11.384 8.24717 11.6637 8.37305C11.7377 8.40622 11.815 8.42188 11.8913 8.42188C12.1034 8.42188 12.3058 8.29988 12.3983 8.09403C12.7237 7.37074 13.3752 6.83395 14.1409 6.65895C14.4401 6.59044 14.6272 6.29266 14.5585 5.99336C14.49 5.69419 14.1913 5.50693 13.893 5.57578L13.8931 5.57575Z" fill="#FD5134"/>
<path d="M7.82294 8.0938C7.91563 8.29965 8.11808 8.42164 8.32996 8.42164C8.40623 8.42164 8.48358 8.40583 8.55752 8.37281C8.83731 8.2471 8.96224 7.91817 8.83638 7.63821C8.36904 6.599 7.43154 5.82801 6.32817 5.57551C6.02931 5.50746 5.73122 5.69425 5.66257 5.99309C5.59405 6.29226 5.78131 6.59019 6.08015 6.65869C6.84622 6.83369 7.49757 7.37035 7.82293 8.09377L7.82294 8.0938Z" fill="#FD5134"/>
<path d="M10.0006 11.7852C8.73585 11.7852 7.58398 13.0562 7.58398 14.4518C7.58398 14.7587 7.83262 15.0073 8.13954 15.0073C8.44646 15.0073 8.6951 14.7587 8.6951 14.4518C8.6951 13.5902 9.40938 12.8963 10.0006 12.8963C10.5919 12.8963 11.306 13.5902 11.306 14.4518C11.306 14.7587 11.5547 15.0073 11.8616 15.0073C12.1685 15.0073 12.4172 14.7587 12.4172 14.4518C12.4172 13.0559 11.2653 11.7852 10.0006 11.7852Z" fill="#FD5134"/>
</svg>
