<svg width="42" height="42" viewBox="0 0 42 42" fill="none" xmlns="http://www.w3.org/2000/svg">
<path d="M20.825 0C9.34233 0 0 9.34233 0 20.825C0 32.3077 9.34233 41.65 20.825 41.65C32.3077 41.65 41.65 32.3077 41.65 20.825C41.65 9.34233 32.3077 0 20.825 0ZM20.825 39.3361C10.6183 39.3361 2.31389 31.0317 2.31389 20.825C2.31389 10.6183 10.6183 2.31389 20.825 2.31389C31.0317 2.31389 39.3361 10.6183 39.3361 20.825C39.3361 31.0317 31.0317 39.3361 20.825 39.3361Z" fill="#FD5134"/>
<path d="M29.8223 20.1837C29.8223 21.8068 28.6447 23.1225 27.1924 23.1225C25.7398 23.1225 24.5625 21.8067 24.5625 20.1837C24.5625 18.5609 25.7398 17.2451 27.1924 17.2451C28.6447 17.2451 29.8223 18.5609 29.8223 20.1837Z" fill="#FD5134"/>
<path d="M17.5489 20.1837C17.5489 21.8068 16.3713 23.1225 14.919 23.1225C13.4663 23.1225 12.2891 21.8067 12.2891 20.1837C12.2891 18.5609 13.4663 17.2451 14.919 17.2451C16.3713 17.2451 17.5489 18.5609 17.5489 20.1837Z" fill="#FD5134"/>
<path d="M28.9308 11.6107C26.633 12.1365 24.6806 13.7422 23.7074 15.9062C23.4456 16.4889 23.7055 17.1739 24.2881 17.436C24.4421 17.5051 24.6032 17.5377 24.762 17.5377C25.2036 17.5377 25.6252 17.2837 25.8179 16.855C26.4955 15.3487 27.8522 14.2309 29.4469 13.8664C30.0699 13.7238 30.4596 13.1037 30.3165 12.4803C30.1738 11.8573 29.5518 11.4674 28.9306 11.6107L28.9308 11.6107Z" fill="#FD5134"/>
<path d="M16.2901 16.8545C16.4832 17.2832 16.9047 17.5373 17.346 17.5373C17.5048 17.5373 17.6659 17.5043 17.8199 17.4356C18.4025 17.1738 18.6627 16.4888 18.4006 15.9058C17.4274 13.7416 15.475 12.136 13.1773 11.6102C12.5549 11.4685 11.9341 11.8575 11.7912 12.4798C11.6485 13.1028 12.0384 13.7233 12.6608 13.8659C14.2561 14.2304 15.6125 15.3479 16.2901 16.8545L16.2901 16.8545Z" fill="#FD5134"/>
<path d="M20.8255 24.5439C18.1917 24.5439 15.793 27.191 15.793 30.0972C15.793 30.7364 16.3108 31.2541 16.9499 31.2541C17.5891 31.2541 18.1069 30.7364 18.1069 30.0972C18.1069 28.303 19.5944 26.8578 20.8255 26.8578C22.057 26.8578 23.5442 28.303 23.5442 30.0972C23.5442 30.7364 24.0619 31.2541 24.7011 31.2541C25.3403 31.2541 25.8581 30.7364 25.8581 30.0972C25.8581 27.1903 23.4593 24.5439 20.8255 24.5439Z" fill="#FD5134"/>
</svg>
