<svg width="25" height="23" viewBox="0 0 25 23" fill="none" xmlns="http://www.w3.org/2000/svg">
<g opacity="0.94">
<path d="M15.5087 8.06463V3.10174C15.5087 1.39274 14.116 0 12.4069 0H3.10174C1.39274 0 0 1.39274 0 3.10174V8.06463C0 9.56271 1.06711 10.8159 2.48145 11.1043V13.6478C2.48145 13.899 2.63333 14.1255 2.86289 14.2216C2.94056 14.2525 3.02105 14.2681 3.10175 14.2681C3.26294 14.2681 3.42131 14.206 3.53901 14.0851L6.46096 11.1664H12.4069C14.1159 11.1664 15.5087 9.77363 15.5087 8.06463ZM6.20347 9.92556C6.03904 9.92556 5.88088 9.99069 5.76621 10.1086L3.72206 12.1495V10.5461C3.72206 10.2049 3.44295 9.92582 3.10177 9.92582C2.07515 9.92582 1.24061 9.09157 1.24061 8.06467V3.10178C1.24061 2.07516 2.07487 1.24062 3.10177 1.24062H12.407C13.4336 1.24062 14.2681 2.07488 14.2681 3.10178V8.06467C14.2681 9.09129 13.4339 9.92582 12.407 9.92582L6.20347 9.92556ZM24.814 10.8561V15.819C24.814 17.3171 23.7469 18.5703 22.3326 18.8587V21.4022C22.3326 21.6534 22.1807 21.8799 21.9511 21.976C21.8735 22.0069 21.793 22.0225 21.7123 22.0225C21.5511 22.0225 21.3927 21.9604 21.275 21.8395L18.3531 18.9208H12.4071C10.6981 18.9208 9.3054 17.528 9.3054 15.819V12.407C9.3054 12.0658 9.5845 11.7867 9.92569 11.7867C10.2669 11.7867 10.546 12.0658 10.546 12.407V15.819C10.546 16.8457 11.3802 17.6802 12.4071 17.6802H18.6106C18.775 17.6802 18.9332 17.7453 19.0479 17.8632L21.092 19.904V18.3005C21.092 17.9593 21.3711 17.6802 21.7123 17.6802C22.7389 17.6802 23.5735 16.846 23.5735 15.8191V10.8562C23.5735 9.82956 22.7392 8.99503 21.7123 8.99503L16.7494 8.99525C16.4082 8.99525 16.1291 8.71614 16.1291 8.37496C16.1291 8.03377 16.4082 7.75466 16.7494 7.75466H21.7123C23.4213 7.75445 24.814 9.14714 24.814 10.8561ZM22.3326 13.3376C22.3326 13.5081 22.193 13.6478 22.0223 13.6478H20.7817C20.6112 13.6478 20.4715 13.5083 20.4715 13.3376C20.4715 13.1671 20.611 13.0273 20.7817 13.0273H22.0223C22.193 13.0273 22.3326 13.1671 22.3326 13.3376ZM18.6105 13.3376C18.6105 13.5081 18.471 13.6478 18.3003 13.6478H12.0968C11.9263 13.6478 11.7865 13.5083 11.7865 13.3376C11.7865 13.1671 11.9261 13.0273 12.0968 13.0273H18.3003C18.471 13.0273 18.6105 13.1671 18.6105 13.3376ZM18.6105 15.1987C18.6105 15.3692 18.471 15.509 18.3003 15.509H15.8188C15.6483 15.509 15.5086 15.3694 15.5086 15.1987C15.5086 15.0282 15.6481 14.8885 15.8188 14.8885H18.3003C18.471 14.8885 18.6105 15.028 18.6105 15.1987ZM13.3376 14.8885C13.5081 14.8885 13.6479 15.028 13.6479 15.1987C13.6479 15.3692 13.5083 15.509 13.3376 15.509H12.0971C11.9266 15.509 11.7868 15.3694 11.7868 15.1987C11.7868 15.0282 11.9263 14.8885 12.0971 14.8885H13.3376ZM22.3327 11.4765C22.3327 11.6469 22.1931 11.7867 22.0224 11.7867H15.5088C15.3383 11.7867 15.1985 11.6472 15.1985 11.4765C15.1985 11.306 15.3381 11.1662 15.5088 11.1662H22.0224C22.1929 11.1664 22.3327 11.306 22.3327 11.4765ZM19.5412 13.0273C19.7117 13.0273 19.8515 13.1669 19.8515 13.3376C19.8515 13.5081 19.7119 13.6478 19.5412 13.6478C19.3707 13.6478 19.231 13.5083 19.231 13.3376C19.231 13.1671 19.3705 13.0273 19.5412 13.0273ZM14.5783 14.8885C14.7488 14.8885 14.8886 15.028 14.8886 15.1987C14.8886 15.3692 14.749 15.509 14.5783 15.509C14.4078 15.509 14.2681 15.3694 14.2681 15.1987C14.2683 15.028 14.4078 14.8885 14.5783 14.8885Z" fill="white"/>
</g>
<path d="M7.5 7.54167C8.46542 7.54167 9.25 6.75709 9.25 5.79167V4.33334C9.25 3.36792 8.46542 2.58334 7.5 2.58334C6.53458 2.58334 5.75 3.36792 5.75 4.33334V5.79167C5.75 6.75709 6.53458 7.54167 7.5 7.54167Z" stroke="white" stroke-width="0.3" stroke-linecap="round" stroke-linejoin="round"/>
<path d="M4.875 5.20834V5.79167C4.875 7.24125 6.05042 8.41667 7.5 8.41667C8.94958 8.41667 10.125 7.24125 10.125 5.79167V5.20834" stroke="white" stroke-width="0.3" stroke-linecap="round" stroke-linejoin="round"/>
<path d="M6.65674 4.18166C7.1759 3.99208 7.74174 3.99208 8.2609 4.18166" stroke="#86E2FF" stroke-width="0.3" stroke-linecap="round" stroke-linejoin="round"/>
<path d="M6.9248 5.05667C7.2748 4.96042 7.64522 4.96042 7.99522 5.05667" stroke="#86E2FF" stroke-width="0.3" stroke-linecap="round" stroke-linejoin="round"/>
</svg>
