<svg width="43" height="48" viewBox="0 0 43 48" fill="none" xmlns="http://www.w3.org/2000/svg">
<path d="M27.1641 21.1665L31.5894 18.6378L40.9885 20.9709L40.9889 20.9712C41.5346 21.1051 42.0862 20.7717 42.2218 20.2263C42.3574 19.6805 42.0261 19.128 41.4807 18.9906L34.1547 17.1722L41.1313 13.1862H41.131C41.3666 13.0523 41.5395 12.8303 41.6112 12.569C41.6829 12.3074 41.6477 12.0283 41.5132 11.793C41.3786 11.5577 41.1563 11.3856 40.8946 11.3145C40.633 11.2438 40.354 11.2797 40.119 11.4149L33.2005 15.3679L35.4123 8.39708C35.4943 8.13922 35.4703 7.85916 35.346 7.61872C35.2214 7.37861 35.0065 7.1976 34.7487 7.11563C34.4905 7.034 34.2108 7.05791 33.9703 7.18257C33.7302 7.30724 33.5492 7.5224 33.4679 7.7806L30.5867 16.8615L26.3028 19.3092L22.0855 16.8744V12.0089L28.7742 5.00528L28.7739 5.00494C29.1612 4.5968 29.1455 3.95233 28.7384 3.5643C28.3316 3.17597 27.6871 3.19032 27.2977 3.5964L22.0852 9.05488V1.02017C22.0852 0.45698 21.6285 0 21.0654 0C20.5018 0 20.0452 0.45698 20.0452 1.02017V8.98756L15.0898 3.609C14.7079 3.19505 14.0624 3.16841 13.6482 3.55025C13.2342 3.93209 13.2076 4.5776 13.5894 4.99186L20.0448 11.9982V16.874L16.179 19.1063L12.0467 16.3849L9.87692 6.94556C9.75055 6.39637 9.20307 6.05382 8.65425 6.17983C8.10506 6.3062 7.76251 6.85368 7.88852 7.40285L9.57984 14.76L2.86966 10.3404C2.39936 10.0307 1.76686 10.1608 1.45708 10.6311C1.1473 11.1017 1.27743 11.7339 1.74807 12.0437L8.40194 16.4259L1.18456 17.6063C0.66064 17.6923 0.290114 18.1657 0.333105 18.6951C0.375797 19.2245 0.817409 19.6323 1.34847 19.633C1.40414 19.633 1.45947 19.6286 1.51446 19.6197L10.9162 18.0821L14.9665 20.7495V25.9276L10.6634 28.3863L1.26343 26.0526C0.717314 25.9187 0.165355 26.252 0.0301827 26.7978C-0.105068 27.3439 0.226908 27.8965 0.772345 28.0332L8.09797 29.8515L1.12138 33.8376C0.632294 34.117 0.46255 34.7403 0.741936 35.2294C1.02165 35.7185 1.6446 35.8882 2.1337 35.6088L9.05154 31.6562L6.84008 38.6267C6.75811 38.8846 6.78168 39.1646 6.90634 39.4051C7.03066 39.6452 7.24583 39.8262 7.50368 39.9081C7.76154 39.9898 8.0416 39.9659 8.2817 39.8412C8.52215 39.7165 8.70282 39.5014 8.78445 39.2432L11.6653 30.1623L16.2095 27.566L20.1676 29.8512V35.0146L13.4789 42.0182C13.092 42.426 13.1077 43.0701 13.5141 43.4582C13.9209 43.8465 14.5647 43.8325 14.9541 43.4267L20.1673 37.9679V46.0029H20.1676C20.1693 46.5651 20.6256 47.02 21.1878 47.02C21.75 47.02 22.2062 46.5651 22.2083 46.0029V38.0362L27.163 43.4141C27.5449 43.828 28.1904 43.8547 28.6046 43.4728C29.0186 43.091 29.0452 42.4455 28.6634 42.0312L22.2083 35.0256V29.7092L25.7186 27.6828L30.2064 30.6382L32.3761 40.0775H32.3758C32.4824 40.5403 32.8943 40.8685 33.369 40.8688C33.4462 40.8688 33.523 40.8603 33.5981 40.8432C33.8618 40.7828 34.091 40.6199 34.2348 40.3907C34.3782 40.1612 34.425 39.8842 34.3642 39.6202L32.6732 32.2634L39.3838 36.6826C39.8541 36.9924 40.4866 36.8622 40.7963 36.3919C41.1061 35.9213 40.9756 35.2891 40.5054 34.9794L33.8515 30.5975L41.0682 29.4171V29.4168C41.6242 29.3259 42.0013 28.8017 41.9104 28.2456C41.8195 27.6899 41.2953 27.3129 40.7392 27.4034L31.3366 28.941L27.1637 26.1929L27.1641 21.1665ZM25.1241 25.6714L21.0649 28.0143L17.0064 25.6714V20.9845L21.0653 18.6415L25.1241 20.9845V25.6714Z" fill="white"/>
</svg>
